<?xml version="1.0" encoding="utf-8"?>
<!-- Generator: Adobe Illustrator 28.7.1, SVG Export Plug-In . SVG Version: 9.03 Build 54978)  -->
<svg version="1.1" baseProfile="tiny" id="Layer_1" xmlns="http://www.w3.org/2000/svg" xmlns:xlink="http://www.w3.org/1999/xlink"
	 x="0px" y="0px" viewBox="0 0 1080 1080" overflow="visible" xml:space="preserve">
<g>
	<g>
		<path fill="#55CDFF" d="M3671.99,842.63h-83.01c-22.38,0-41.97,13.99-49.43,34.51l-26.12,76.48c-1.86,5.6-7.46,9.32-13.05,9.32
			c-13.68,0-27.36,0-41.04,0c-4.67,0-7.46,3.73-7.46,7.46v22.38c0,4.67,2.79,7.46,7.46,7.46h39.17h1.87
			c18.6,0,34.33-11.7,43.44-27.87v20.32c0,4.66,2.8,7.46,7.46,7.46h30.39c20.47,0,40.94,0,61.41,0v0.09h28.91
			c28.91,0,52.23-23.32,52.23-51.3v-55.03C3724.22,865.95,3700.9,842.63,3671.99,842.63z M3686.92,948.96
			c0,7.46-6.53,13.99-14.93,13.99h-9.55c-37.05-0.03-74.11-0.06-111.16-0.09c-0.71,0-1.04,0.55-1.66,0.71l25.37-74.3
			c1.86-5.6,7.46-9.32,13.99-9.32h83.01c8.4,0,14.93,6.53,14.93,13.99V948.96z"/>
	</g>
	<path fill="#55CDFF" d="M3139.44,936.56h-6.18c-0.96,0-1.57,0.26-2.09,1.13l-24.9,39.94l-24.9-39.94
		c-0.53-0.87-1.13-1.13-2.09-1.13H3073c-1.13,0-1.74,0.61-1.74,1.74v58.08c0,1.13,0.61,1.74,1.74,1.74h5.05
		c1.13,0,1.74-0.61,1.74-1.74V950.6l22.55,35.58c0.53,0.87,1.14,1.13,2.09,1.13h3.57c0.87,0,1.57-0.26,2.09-1.13l22.55-35.49v45.7
		c0,1.13,0.61,1.74,1.74,1.74h5.05c1.14,0,1.74-0.61,1.74-1.74V938.3C3141.18,937.17,3140.58,936.56,3139.44,936.56z"/>
	<path fill="#55CDFF" d="M3180.01,949.21h-14.45c-14.54,0-18.03,6.45-18.03,19.09v10.55c0,12.99,3.48,19.36,18.03,19.36h14.45
		c14.54,0,18.03-6.37,18.03-19.36v-10.55C3198.03,955.66,3194.55,949.21,3180.01,949.21z M3189.85,979.56
		c0,8.98-1.92,10.9-10.01,10.9h-14.1c-8.1,0-10.01-1.92-10.01-10.9V967.7c0-8.81,1.92-10.73,10.01-10.73h14.1
		c8.1,0,10.01,1.92,10.01,10.73V979.56z"/>
	<path fill="#55CDFF" d="M2901.87,984.2c-0.76,5.03-3.28,6.26-9.73,6.26h-14.1c-8.1,0-10.01-1.92-10.01-10.9V967.7
		c0-8.81,1.92-10.73,10.01-10.73h14.1c6.38,0,8.92,1.21,9.71,6.03h8.23c-1.04-9.14-5.42-13.79-17.76-13.79h-14.45
		c-14.54,0-18.03,6.45-18.03,19.09v10.55c0,12.99,3.48,19.36,18.03,19.36h14.45c12.39,0,16.75-4.62,17.77-14.02H2901.87z"/>
	<path fill="#55CDFF" d="M3235.49,949.21h-25.51c-1.14,0-1.74,0.61-1.74,1.74v4.27c0,1.14,0.61,1.74,1.74,1.74h25.34
		c7.31,0,8.97,1.49,8.97,7.07c0,2.09-0.7,3.23-2.78,3.49l-21.6,2.35c-11.84,1.31-15.59,5.32-15.59,14.82
		c0,9.33,6.62,13.52,18.29,13.52h6.53c9.58,0,12.89-2.36,15.15-7.5v5.76c0,1.13,0.61,1.74,1.74,1.74h4.7c1.14,0,1.74-0.61,1.74-1.74
		V963.6C3252.46,953.66,3248.03,949.21,3235.49,949.21z M3244.28,979.29c0,8.2-2.78,11.34-11.84,11.34h-9.84
		c-6.97,0-10.01-2.35-10.01-6.63c0-4.71,1.65-6.37,8.62-7.06l23.08-2.44V979.29z"/>
	<path fill="#55CDFF" d="M2990.54,949.21h-25.51c-1.14,0-1.74,0.61-1.74,1.74v4.27c0,1.14,0.61,1.74,1.74,1.74h25.34
		c7.31,0,8.97,1.49,8.97,7.07c0,2.09-0.7,3.23-2.78,3.49l-21.6,2.35c-11.84,1.31-15.59,5.32-15.59,14.82
		c0,9.33,6.62,13.52,18.29,13.52h6.53c9.58,0,12.89-2.36,15.15-7.5v5.76c0,1.13,0.61,1.74,1.74,1.74h4.7c1.14,0,1.74-0.61,1.74-1.74
		V963.6C3007.51,953.66,3003.08,949.21,2990.54,949.21z M2999.33,979.29c0,8.2-2.78,11.34-11.84,11.34h-9.84
		c-6.97,0-10.01-2.35-10.01-6.63c0-4.71,1.65-6.37,8.62-7.06l23.08-2.44V979.29z"/>
	<path fill="#55CDFF" d="M3292.45,949.21h-20.03V938.4c0-1.13-0.61-1.74-1.74-1.74h-2.26c-1.13,0-1.74,0.61-1.74,1.83
		c-0.08,9.94-0.7,10.64-7.84,10.73c-1.13,0-1.74,0.61-1.74,1.74v4.1c0,1.13,0.61,1.74,1.74,1.74h5.4v22.94
		c0,12.21,3.57,18.49,19.33,18.49h8.88c1.13,0,1.74-0.61,1.74-1.74v-4.1c0-1.13-0.61-1.74-1.74-1.74h-8.88
		c-8.71,0-11.15-2.35-11.15-10.2V956.8h20.03c1.13,0,1.74-0.61,1.74-1.74v-4.1C3294.19,949.82,3293.58,949.21,3292.45,949.21z"/>
	<path fill="#55CDFF" d="M3049.44,949.21h-20.03V938.4c0-1.13-0.61-1.74-1.74-1.74h-2.26c-1.13,0-1.74,0.61-1.74,1.83
		c-0.09,9.94-0.7,10.64-7.84,10.73c-1.13,0-1.74,0.61-1.74,1.74v4.1c0,1.13,0.61,1.74,1.74,1.74h5.4v22.94
		c0,12.21,3.57,18.49,19.33,18.49h8.88c1.13,0,1.74-0.61,1.74-1.74v-4.1c0-1.13-0.61-1.74-1.74-1.74h-8.88
		c-8.71,0-11.15-2.35-11.15-10.2V956.8h20.03c1.13,0,1.74-0.61,1.74-1.74v-4.1C3051.18,949.82,3050.57,949.21,3049.44,949.21z"/>
	<path fill="#55CDFF" d="M3358.46,949.21h-1.92c-8.27,0-12.98,2.35-15.32,7.06c-2.35-4.97-7.23-7.06-15.5-7.06h-1.92
		c-7.92,0-11.93,2.09-13.85,6.37v-4.62c0-1.14-0.61-1.74-1.74-1.74h-4.7c-1.13,0-1.74,0.61-1.74,1.74v45.52
		c0,1.13,0.61,1.74,1.74,1.74h4.7c1.13,0,1.74-0.61,1.74-1.74v-28.6c0-9.33,3.14-10.9,10.01-10.9h4.96c8.01,0,9.93,1.92,9.93,10.9
		v28.69c0,1.13,0.61,1.74,1.74,1.74h4.7c1.13,0,1.74-0.61,1.74-1.74v-28.69c0-9.33,3.14-10.9,10.01-10.9h4.96
		c8.01,0,10.01,1.92,10.01,10.9v28.69c0,1.13,0.61,1.74,1.74,1.74h4.7c1.13,0,1.74-0.61,1.74-1.74v-27.99
		C3376.22,955.58,3372.57,949.21,3358.46,949.21z"/>
	<path fill="#55CDFF" d="M2953.02,980.97c0,0,0,15.59,0,15.59c0,1.14-0.61,1.75-1.75,1.75h-4.7c-1.13,0-1.75-0.61-1.75-1.75v-16.29
		c0-8.95-1.99-10.89-9.92-10.9h-0.58c-6.88,0-10.02,1.57-10.02,10.9v16.2c0,1.14-0.61,1.75-1.75,1.75h-4.7
		c-1.13,0-1.74-0.61-1.74-1.75c0-10.15,0-24.74,0-34.88c0-9.24,0-14.03,0-23.27c-0.01-0.08-0.08-0.77,0.45-1.3
		c0.29-0.29,0.73-0.44,1.29-0.44h4.7c1.14,0,1.75,0.61,1.75,1.75v29.65c0.42-0.91,1.02-1.91,1.91-2.84
		c3.36-3.55,8.64-3.98,13.22-3.33c3.92,0.56,7.87,1.79,10.34,5.08C2952.73,970.81,2953.02,976.24,2953.02,980.97z"/>
	<path fill="#55CDFF" d="M3416.21,949.21h-20.03V938.4c0-1.13-0.61-1.74-1.74-1.74h-2.26c-1.13,0-1.74,0.61-1.74,1.83
		c-0.08,9.94-0.7,10.64-7.84,10.73c-1.13,0-1.74,0.61-1.74,1.74v4.1c0,1.13,0.61,1.74,1.74,1.74h5.4v22.94
		c0,12.21,3.57,18.49,19.33,18.49h8.88c1.13,0,1.74-0.61,1.74-1.74v-4.1c0-1.13-0.61-1.74-1.74-1.74h-8.88
		c-8.71,0-11.15-2.35-11.15-10.2V956.8h20.03c1.13,0,1.74-0.61,1.74-1.74v-4.1C3417.95,949.82,3417.34,949.21,3416.21,949.21z"/>
	<path fill="#55CDFF" d="M3395.44,870.32h-18.1c-4.88,0-9.15,3.06-10.78,7.54l-5.7,16.71c-0.41,1.22-1.63,2.04-2.85,2.04h-12.3
		v-15.18c0-0.24-0.03-0.47-0.04-0.7v-0.06c0,0,0,0,0,0c-0.21-3.37-1.78-6.4-4.31-8.21c-1.93-1.38-4.19-2.1-6.56-2.1h-18.19
		c-6.25,0-11.31,5.07-11.31,11.33v11.84c0,6.24,5.07,11.32,11.29,11.33v-0.09h20.62c-0.84,4.85-3.77,6.42-10.87,6.42h-8.88
		c-1.13,0-1.74,0.61-1.74,1.74v4.1c0,1.13,0.61,1.74,1.74,1.74h8.88c13.7,0,18.18-4.75,19.12-14.01h12.55
		c3.91,0,7.52-2.15,9.55-5.47v3.84c0,1.02,0.61,1.63,1.63,1.63h6.63h1.91h11.4h4.3h2.01c6.31,0,11.39-5.09,11.39-11.2v-12.02
		C3406.83,875.41,3401.75,870.32,3395.44,870.32z M3313.45,893.52v-11.84c0-1.75,1.42-3.17,3.17-3.17h18.19
		c0.66,0,1.3,0.2,1.83,0.59c0.47,0.33,0.79,1.03,0.89,1.83c-0.01,0-0.02,0-0.04,0v15.68h-21.58
		C3314.5,896.28,3313.45,895.02,3313.45,893.52z M3398.7,893.55c0,1.63-1.43,3.06-3.26,3.06h-2.01h-4.3h-11.4h-1.91h-6.63
		c-0.16,0-0.29,0.05-0.42,0.09l5.52-16.18c0.4-1.22,1.63-2.04,3.05-2.04h18.1c1.83,0,3.26,1.43,3.26,3.06V893.55z"/>
	<path fill="#55CDFF" d="M3215.38,899.25v3.87c0,1.02,0.61,1.63,1.63,1.63h6.63h1.91h11.4h3.14h1.16h2.01h34.42
		c10.15,0,18.46-8.32,18.46-18.49v-14.44c0-0.9-0.73-1.64-1.63-1.64h-4.87c-0.9,0-1.63,0.73-1.63,1.64v14.45
		c0,5.7-4.61,10.32-10.3,10.32h-23.49c0.28-0.97,0.44-2,0.44-3.05v-12.02c0-6.11-5.09-11.2-11.39-11.2h-18.1
		c-4.88,0-9.15,3.06-10.78,7.54l-5.7,16.71c-0.41,1.22-1.63,2.04-2.85,2.04h-12.11v-0.01h-38.76c-5.67,0-10.32-4.65-10.32-10.33
		v-13.86c0-0.05-0.01-0.09-0.01-0.14v-0.44c0-0.9-0.73-1.64-1.63-1.64h-0.57h-3.71h-0.59c-0.9,0-1.63,0.73-1.63,1.64v14.45
		c0,5.7-4.61,10.32-10.31,10.32h-24.5h-11.59c-5.67,0-10.32-4.65-10.32-10.33v-14.44c0-0.9-0.73-1.64-1.63-1.64h-4.87
		c-0.9,0-1.63,0.73-1.63,1.64v14.45c0,10.2,8.26,18.47,18.45,18.47h11.6h24.49h1.52v-0.08c5.2-0.42,9.79-3,12.88-6.85
		c3.38,4.22,8.56,6.92,14.39,6.92h7.13h31.64h12.11C3209.71,904.75,3213.24,902.55,3215.38,899.25z M3222.1,880.5
		c0.41-1.22,1.63-2.04,3.05-2.04h18.1c1.83,0,3.26,1.43,3.26,3.06v12.02c0,1.61-1.4,3.02-3.2,3.05h-3.23v0.01h-3.14v0h-11.4h-1.91
		h-6.63c-0.16,0-0.29,0.05-0.42,0.09L3222.1,880.5z"/>
	<path fill="#55CDFF" d="M3317.1,864.09h2.76h5h9.05c0.87,0,1.36-0.46,1.36-1.37v-2.16c0-0.87-0.49-1.33-1.36-1.33h-8.94
		c0.42-3.26,2.16-4.29,6.66-4.29h2.57c0.68,0,1.06-0.38,1.06-1.06v-2.5c0-0.68-0.38-1.06-1.06-1.06h-2.57
		c-8.56,0-11.21,3.03-11.66,8.91h-2.88c-0.91,0-1.36,0.45-1.36,1.33v2.16C3315.74,863.64,3316.19,864.09,3317.1,864.09z"/>
	<path fill="#55CDFF" d="M3284.46,866.41c3.51,0,5.39-1.96,5.39-5.48c0-3.52-1.88-5.48-5.39-5.48c-3.59,0-5.56,1.96-5.56,5.48
		C3278.91,864.45,3280.87,866.41,3284.46,866.41z"/>
	<path fill="#55CDFF" d="M3298.93,855.45c-3.51,0-5.48,1.96-5.48,5.48c0,3.52,1.96,5.48,5.48,5.48s5.47-1.96,5.47-5.48
		C3304.4,857.41,3302.44,855.45,3298.93,855.45z"/>
	<path fill="#55CDFF" d="M3051.69,870.19h-4.87c-0.9,0-1.63,0.73-1.63,1.64v14.45c0,5.7-4.61,10.32-10.3,10.32h-41.71v8.15h41.7
		c10.15,0,18.46-8.32,18.46-18.49v-14.44C3053.32,870.92,3052.59,870.19,3051.69,870.19z"/>
	<path fill="#55CDFF" d="M3020.94,896.59h-60.64c-5.69,0-10.3-4.62-10.3-10.32v-41.82c0-0.9-0.73-1.64-1.63-1.64h-4.88
		c-0.9,0-1.63,0.73-1.63,1.64v41.8c0,10.17,8.31,18.49,18.46,18.49h60.62V896.59z"/>
	<path fill="#55CDFF" d="M3033.25,870.19h-4.87c-0.9,0-1.63,0.73-1.63,1.64v14.45c0,5.7-4.61,10.32-10.3,10.32h-23.25v8.15h23.24
		c10.15,0,18.46-8.32,18.46-18.49v-14.44C3034.89,870.92,3034.16,870.19,3033.25,870.19z"/>
	<path fill="#55CDFF" d="M3014.15,870.19h-4.87c-0.9,0-1.63,0.73-1.63,1.64v14.45c0,5.7-4.61,10.32-10.3,10.32h-37.19v8.15h37.17
		c10.15,0,18.46-8.32,18.46-18.49v-14.44C3015.78,870.92,3015.05,870.19,3014.15,870.19z"/>
	<path fill="#55CDFF" d="M3023.82,866.41c3.51,0,5.39-1.96,5.39-5.48c0-3.52-1.88-5.48-5.39-5.48c-3.59,0-5.56,1.96-5.56,5.48
		C3018.26,864.45,3020.22,866.41,3023.82,866.41z"/>
	<path fill="#55CDFF" d="M3038.28,855.45c-3.51,0-5.47,1.96-5.47,5.48c0,3.52,1.96,5.48,5.47,5.48c3.51,0,5.47-1.96,5.47-5.48
		C3043.75,857.41,3041.79,855.45,3038.28,855.45z"/>
	<path fill="#55CDFF" d="M3030.23,843.11c-3.51,0-5.48,1.97-5.48,5.48c0,3.52,1.96,5.48,5.48,5.48s5.47-1.96,5.47-5.48
		C3035.71,845.08,3033.75,843.11,3030.23,843.11z"/>
	<path fill="#55CDFF" d="M3100.75,875.74c3.51,0,5.39-1.96,5.39-5.48c0-3.52-1.88-5.48-5.39-5.48c-3.59,0-5.56,1.96-5.56,5.48
		C3095.19,873.78,3097.15,875.74,3100.75,875.74z"/>
	<path fill="#55CDFF" d="M3115.21,875.74c3.51,0,5.47-1.96,5.47-5.48c0-3.52-1.96-5.48-5.47-5.48c-3.51,0-5.48,1.96-5.48,5.48
		C3109.73,873.78,3111.7,875.74,3115.21,875.74z"/>
	<g>
		<path fill="#55CDFF" d="M2914.42,896.59h-34.81c-5.67,0-10.32-4.65-10.32-10.33v-14.44c0-0.9-0.73-1.64-1.63-1.64h-4.88
			c-0.9,0-1.63,0.73-1.63,1.64v14.45c0,10.2,8.26,18.47,18.45,18.47h34.83V896.59z"/>
		<path fill="#55CDFF" d="M2880.43,896.59h34.81c5.67,0,10.32-4.65,10.32-10.33v-14.44c0-0.9,0.73-1.64,1.63-1.64h4.87
			c0.9,0,1.63,0.73,1.63,1.64v14.45c0,10.2-8.26,18.47-18.45,18.47h-34.83V896.59z"/>
		<path fill="#55CDFF" d="M2890.27,875.74c3.51,0,5.39-1.96,5.39-5.48c0-3.52-1.88-5.48-5.39-5.48c-3.59,0-5.56,1.96-5.56,5.48
			C2884.71,873.78,2886.67,875.74,2890.27,875.74z"/>
		<path fill="#55CDFF" d="M2904.73,875.74c3.51,0,5.47-1.96,5.47-5.48c0-3.52-1.96-5.48-5.47-5.48c-3.51,0-5.48,1.96-5.48,5.48
			C2899.25,873.78,2901.22,875.74,2904.73,875.74z"/>
	</g>
</g>
<g>
	<g>
		<path fill="#2927F6" d="M919.97,461.19h-83.01c-22.38,0-41.97,13.99-49.43,34.51l-26.12,76.48c-1.86,5.6-7.46,9.32-13.05,9.32
			c-13.68,0-27.36,0-41.04,0c-4.67,0-7.46,3.73-7.46,7.46v22.38c0,4.67,2.8,7.46,7.46,7.46h39.17h1.87
			c18.6,0,34.33-11.7,43.44-27.87v20.32c0,4.66,2.8,7.46,7.46,7.46h30.39c20.47,0,40.94,0,61.41,0v0.09h28.91
			c28.91,0,52.23-23.32,52.23-51.3v-55.03C972.2,484.51,948.88,461.19,919.97,461.19z M934.89,567.52c0,7.46-6.53,13.99-14.93,13.99
			h-9.55c-37.05-0.03-74.11-0.06-111.16-0.09c-0.71,0-1.04,0.55-1.66,0.71l25.37-74.3c1.86-5.6,7.46-9.32,13.99-9.32h83.01
			c8.4,0,14.93,6.53,14.93,13.99V567.52z"/>
	</g>
	<path fill="#2927F6" d="M387.42,555.12h-6.18c-0.96,0-1.57,0.26-2.09,1.13l-24.9,39.94l-24.9-39.94c-0.53-0.87-1.13-1.13-2.09-1.13
		h-6.27c-1.13,0-1.74,0.61-1.74,1.74v58.08c0,1.13,0.61,1.74,1.74,1.74h5.05c1.13,0,1.74-0.61,1.74-1.74v-45.78l22.55,35.58
		c0.53,0.87,1.14,1.13,2.09,1.13h3.57c0.87,0,1.57-0.26,2.09-1.13l22.55-35.49v45.7c0,1.13,0.61,1.74,1.74,1.74h5.05
		c1.14,0,1.74-0.61,1.74-1.74v-58.08C389.16,555.73,388.55,555.12,387.42,555.12z"/>
	<path fill="#2927F6" d="M427.98,567.77h-14.45c-14.54,0-18.03,6.45-18.03,19.09v10.55c0,12.99,3.48,19.36,18.03,19.36h14.45
		c14.54,0,18.03-6.37,18.03-19.36v-10.55C446.01,574.22,442.53,567.77,427.98,567.77z M437.82,598.12c0,8.98-1.92,10.9-10.01,10.9
		h-14.1c-8.1,0-10.01-1.92-10.01-10.9v-11.86c0-8.81,1.92-10.73,10.01-10.73h14.1c8.1,0,10.01,1.92,10.01,10.73V598.12z"/>
	<path fill="#2927F6" d="M149.84,602.76c-0.76,5.03-3.28,6.26-9.73,6.26h-14.1c-8.1,0-10.01-1.92-10.01-10.9v-11.86
		c0-8.81,1.92-10.73,10.01-10.73h14.1c6.38,0,8.92,1.21,9.71,6.03h8.23c-1.04-9.14-5.42-13.79-17.76-13.79h-14.45
		c-14.54,0-18.03,6.45-18.03,19.09v10.55c0,12.99,3.48,19.36,18.03,19.36h14.45c12.39,0,16.75-4.62,17.77-14.02H149.84z"/>
	<path fill="#2927F6" d="M483.46,567.77h-25.51c-1.14,0-1.74,0.61-1.74,1.74v4.27c0,1.14,0.61,1.74,1.74,1.74h25.34
		c7.31,0,8.97,1.49,8.97,7.07c0,2.09-0.7,3.23-2.78,3.49l-21.6,2.35c-11.84,1.31-15.59,5.32-15.59,14.82
		c0,9.33,6.62,13.52,18.29,13.52h6.53c9.58,0,12.89-2.36,15.15-7.5v5.76c0,1.13,0.61,1.74,1.74,1.74h4.7c1.14,0,1.74-0.61,1.74-1.74
		v-32.88C500.44,572.22,496,567.77,483.46,567.77z M492.26,597.85c0,8.2-2.78,11.34-11.84,11.34h-9.84
		c-6.97,0-10.01-2.35-10.01-6.63c0-4.71,1.65-6.37,8.62-7.06l23.08-2.44V597.85z"/>
	<path fill="#2927F6" d="M238.51,567.77H213c-1.14,0-1.74,0.61-1.74,1.74v4.27c0,1.14,0.61,1.74,1.74,1.74h25.34
		c7.31,0,8.97,1.49,8.97,7.07c0,2.09-0.7,3.23-2.78,3.49l-21.6,2.35c-11.84,1.31-15.59,5.32-15.59,14.82
		c0,9.33,6.62,13.52,18.29,13.52h6.53c9.58,0,12.89-2.36,15.15-7.5v5.76c0,1.13,0.61,1.74,1.74,1.74h4.7c1.14,0,1.74-0.61,1.74-1.74
		v-32.88C255.49,572.22,251.05,567.77,238.51,567.77z M247.31,597.85c0,8.2-2.78,11.34-11.84,11.34h-9.84
		c-6.97,0-10.01-2.35-10.01-6.63c0-4.71,1.65-6.37,8.62-7.06l23.08-2.44V597.85z"/>
	<path fill="#2927F6" d="M540.42,567.77H520.4v-10.81c0-1.13-0.61-1.74-1.74-1.74h-2.26c-1.13,0-1.74,0.61-1.74,1.83
		c-0.09,9.94-0.7,10.64-7.84,10.73c-1.13,0-1.74,0.61-1.74,1.74v4.1c0,1.13,0.61,1.74,1.74,1.74h5.4v22.94
		c0,12.21,3.57,18.49,19.33,18.49h8.88c1.13,0,1.74-0.61,1.74-1.74v-4.1c0-1.13-0.61-1.74-1.74-1.74h-8.88
		c-8.71,0-11.15-2.35-11.15-10.2v-23.63h20.03c1.13,0,1.74-0.61,1.74-1.74v-4.1C542.17,568.38,541.56,567.77,540.42,567.77z"/>
	<path fill="#2927F6" d="M297.41,567.77h-20.03v-10.81c0-1.13-0.61-1.74-1.74-1.74h-2.26c-1.13,0-1.74,0.61-1.74,1.83
		c-0.09,9.94-0.7,10.64-7.84,10.73c-1.13,0-1.74,0.61-1.74,1.74v4.1c0,1.13,0.61,1.74,1.74,1.74h5.4v22.94
		c0,12.21,3.57,18.49,19.33,18.49h8.88c1.13,0,1.74-0.61,1.74-1.74v-4.1c0-1.13-0.61-1.74-1.74-1.74h-8.88
		c-8.71,0-11.15-2.35-11.15-10.2v-23.63h20.03c1.13,0,1.74-0.61,1.74-1.74v-4.1C299.16,568.38,298.55,567.77,297.41,567.77z"/>
	<path fill="#2927F6" d="M606.44,567.77h-1.92c-8.27,0-12.98,2.35-15.32,7.06c-2.35-4.97-7.23-7.06-15.5-7.06h-1.92
		c-7.92,0-11.93,2.09-13.85,6.37v-4.62c0-1.14-0.61-1.74-1.74-1.74h-4.7c-1.13,0-1.74,0.61-1.74,1.74v45.52
		c0,1.13,0.61,1.74,1.74,1.74h4.7c1.13,0,1.74-0.61,1.74-1.74v-28.6c0-9.33,3.14-10.9,10.01-10.9h4.96c8.01,0,9.93,1.92,9.93,10.9
		v28.69c0,1.13,0.61,1.74,1.74,1.74h4.7c1.13,0,1.74-0.61,1.74-1.74v-28.69c0-9.33,3.14-10.9,10.01-10.9H606
		c8.01,0,10.01,1.92,10.01,10.9v28.69c0,1.13,0.61,1.74,1.74,1.74h4.7c1.13,0,1.74-0.61,1.74-1.74v-27.99
		C624.2,574.14,620.55,567.77,606.44,567.77z"/>
	<path fill="#2927F6" d="M201,599.52c0,0,0,15.59,0,15.59c0,1.14-0.61,1.75-1.75,1.75h-4.7c-1.13,0-1.75-0.61-1.75-1.75v-16.29
		c0-8.95-1.99-10.89-9.92-10.9h-0.58c-6.88,0-10.02,1.57-10.02,10.9v16.2c0,1.14-0.61,1.75-1.75,1.75h-4.7
		c-1.13,0-1.74-0.61-1.74-1.75c0-10.15,0-24.74,0-34.88c0-9.24,0-14.03,0-23.27c-0.01-0.08-0.08-0.77,0.45-1.3
		c0.29-0.29,0.73-0.44,1.29-0.44h4.7c1.14,0,1.75,0.61,1.75,1.75v29.65c0.42-0.91,1.02-1.91,1.91-2.84
		c3.36-3.55,8.64-3.98,13.22-3.33c3.92,0.56,7.87,1.79,10.34,5.08C200.7,589.37,201,594.8,201,599.52z"/>
	<path fill="#2927F6" d="M664.19,567.77h-20.03v-10.81c0-1.13-0.61-1.74-1.74-1.74h-2.26c-1.13,0-1.74,0.61-1.74,1.83
		c-0.09,9.94-0.7,10.64-7.84,10.73c-1.13,0-1.74,0.61-1.74,1.74v4.1c0,1.13,0.61,1.74,1.74,1.74h5.4v22.94
		c0,12.21,3.57,18.49,19.33,18.49h8.88c1.13,0,1.74-0.61,1.74-1.74v-4.1c0-1.13-0.61-1.74-1.74-1.74h-8.88
		c-8.71,0-11.15-2.35-11.15-10.2v-23.63h20.03c1.13,0,1.74-0.61,1.74-1.74v-4.1C665.93,568.38,665.32,567.77,664.19,567.77z"/>
	<path fill="#2927F6" d="M643.42,488.88h-18.1c-4.88,0-9.15,3.06-10.78,7.54l-5.7,16.71c-0.41,1.22-1.63,2.04-2.85,2.04h-12.3
		v-15.18c0-0.24-0.03-0.47-0.04-0.7v-0.06c0,0,0,0,0,0c-0.21-3.37-1.78-6.4-4.31-8.21c-1.93-1.38-4.19-2.1-6.56-2.1h-18.19
		c-6.25,0-11.31,5.07-11.31,11.33v11.84c0,6.24,5.07,11.32,11.29,11.33l0-0.09h20.62c-0.84,4.85-3.77,6.42-10.87,6.42h-8.88
		c-1.13,0-1.74,0.61-1.74,1.74v4.1c0,1.13,0.61,1.74,1.74,1.74h8.88c13.7,0,18.18-4.75,19.12-14.01h12.55
		c3.91,0,7.52-2.15,9.55-5.47v3.84c0,1.02,0.61,1.63,1.63,1.63h6.63h1.91h11.4h4.3h2.01c6.31,0,11.39-5.09,11.39-11.2v-12.02
		C654.81,493.97,649.72,488.88,643.42,488.88z M561.42,512.07v-11.84c0-1.75,1.42-3.17,3.17-3.17h18.19c0.66,0,1.3,0.2,1.83,0.59
		c0.47,0.33,0.79,1.03,0.89,1.83c-0.01,0-0.02,0-0.04,0v15.68h-21.58C562.47,514.83,561.42,513.58,561.42,512.07z M646.67,512.1
		c0,1.63-1.43,3.06-3.26,3.06h-2.01h-4.3h-11.4h-1.91h-6.63c-0.16,0-0.29,0.05-0.42,0.09l5.52-16.18c0.4-1.22,1.63-2.04,3.05-2.04
		h18.1c1.83,0,3.26,1.43,3.26,3.06V512.1z"/>
	<path fill="#2927F6" d="M463.36,517.81v3.87c0,1.02,0.61,1.63,1.63,1.63h6.63h1.91h11.4h3.14h1.16h2.01h34.42
		c10.15,0,18.46-8.32,18.46-18.49v-14.44c0-0.9-0.73-1.64-1.63-1.64h-4.87c-0.9,0-1.63,0.73-1.63,1.64v14.45
		c0,5.7-4.61,10.32-10.3,10.32h-23.49c0.28-0.97,0.44-2,0.44-3.05v-12.02c0-6.11-5.09-11.2-11.39-11.2h-18.1
		c-4.88,0-9.15,3.06-10.78,7.54l-5.7,16.71c-0.41,1.22-1.63,2.04-2.85,2.04h-12.11v-0.01h-38.76c-5.67,0-10.32-4.65-10.32-10.33
		v-13.86c0-0.05-0.01-0.09-0.01-0.14v-0.44c0-0.9-0.73-1.64-1.63-1.64h-0.57h-3.71h-0.59c-0.9,0-1.63,0.73-1.63,1.64v14.45
		c0,5.7-4.61,10.32-10.31,10.32h-24.5h-11.59c-5.67,0-10.32-4.65-10.32-10.33v-14.44c0-0.9-0.73-1.64-1.63-1.64h-4.87
		c-0.9,0-1.63,0.73-1.63,1.64v14.45c0,10.2,8.26,18.47,18.45,18.47h11.6h24.49h1.52v-0.08c5.2-0.42,9.79-3,12.88-6.85
		c3.38,4.22,8.56,6.92,14.38,6.92h7.13h31.64h12.11C457.68,523.31,461.21,521.11,463.36,517.81z M470.08,499.06
		c0.41-1.22,1.63-2.04,3.05-2.04h18.1c1.83,0,3.26,1.43,3.26,3.06v12.02c0,1.61-1.4,3.02-3.2,3.05h-3.23v0.01h-3.14v0h-11.4h-1.91
		h-6.63c-0.16,0-0.29,0.05-0.42,0.09L470.08,499.06z"/>
	<path fill="#2927F6" d="M565.08,482.65h2.76h5h9.05c0.87,0,1.36-0.45,1.36-1.37v-2.16c0-0.87-0.49-1.33-1.36-1.33h-8.94
		c0.42-3.26,2.16-4.29,6.66-4.29h2.58c0.68,0,1.06-0.38,1.06-1.06v-2.5c0-0.68-0.38-1.06-1.06-1.06h-2.58
		c-8.56,0-11.21,3.03-11.66,8.91h-2.88c-0.91,0-1.36,0.45-1.36,1.33v2.16C563.71,482.2,564.17,482.65,565.08,482.65z"/>
	<path fill="#2927F6" d="M532.44,484.97c3.51,0,5.39-1.96,5.39-5.48c0-3.52-1.88-5.48-5.39-5.48c-3.59,0-5.56,1.96-5.56,5.48
		C526.88,483.01,528.84,484.97,532.44,484.97z"/>
	<path fill="#2927F6" d="M546.9,474.01c-3.51,0-5.48,1.96-5.48,5.48c0,3.52,1.96,5.48,5.48,5.48c3.51,0,5.47-1.96,5.47-5.48
		C552.38,475.97,550.42,474.01,546.9,474.01z"/>
	<path fill="#2927F6" d="M299.67,488.75h-4.87c-0.9,0-1.63,0.73-1.63,1.64v14.45c0,5.7-4.61,10.32-10.3,10.32h-41.71v8.15h41.7
		c10.15,0,18.46-8.32,18.46-18.49v-14.44C301.3,489.48,300.57,488.75,299.67,488.75z"/>
	<path fill="#2927F6" d="M268.92,515.15h-60.64c-5.69,0-10.3-4.62-10.3-10.32v-41.82c0-0.9-0.73-1.64-1.63-1.64h-4.87
		c-0.9,0-1.63,0.73-1.63,1.64v41.8c0,10.17,8.31,18.49,18.46,18.49h60.62V515.15z"/>
	<path fill="#2927F6" d="M281.23,488.75h-4.87c-0.9,0-1.63,0.73-1.63,1.64v14.45c0,5.7-4.61,10.32-10.3,10.32h-23.25v8.15h23.24
		c10.15,0,18.46-8.32,18.46-18.49v-14.44C282.86,489.48,282.13,488.75,281.23,488.75z"/>
	<path fill="#2927F6" d="M262.13,488.75h-4.87c-0.9,0-1.63,0.73-1.63,1.64v14.45c0,5.7-4.61,10.32-10.3,10.32h-37.19v8.15h37.17
		c10.15,0,18.46-8.32,18.46-18.49v-14.44C263.76,489.48,263.03,488.75,262.13,488.75z"/>
	<path fill="#2927F6" d="M271.79,484.97c3.51,0,5.39-1.96,5.39-5.48c0-3.52-1.88-5.48-5.39-5.48c-3.59,0-5.56,1.96-5.56,5.48
		C266.24,483.01,268.2,484.97,271.79,484.97z"/>
	<path fill="#2927F6" d="M286.26,474.01c-3.51,0-5.48,1.96-5.48,5.48c0,3.52,1.96,5.48,5.48,5.48c3.51,0,5.47-1.96,5.47-5.48
		C291.73,475.97,289.77,474.01,286.26,474.01z"/>
	<path fill="#2927F6" d="M278.21,461.67c-3.51,0-5.48,1.96-5.48,5.48c0,3.52,1.96,5.48,5.48,5.48c3.51,0,5.47-1.96,5.47-5.48
		C283.69,463.64,281.72,461.67,278.21,461.67z"/>
	<path fill="#2927F6" d="M348.72,494.3c3.51,0,5.39-1.96,5.39-5.48c0-3.52-1.88-5.48-5.39-5.48c-3.59,0-5.56,1.96-5.56,5.48
		C343.17,492.34,345.13,494.3,348.72,494.3z"/>
	<path fill="#2927F6" d="M363.19,494.3c3.51,0,5.47-1.96,5.47-5.48c0-3.52-1.96-5.48-5.47-5.48c-3.51,0-5.48,1.96-5.48,5.48
		C357.71,492.34,359.67,494.3,363.19,494.3z"/>
	<g>
		<path fill="#2927F6" d="M162.39,515.15h-34.81c-5.67,0-10.32-4.65-10.32-10.33v-14.44c0-0.9-0.73-1.64-1.63-1.64h-4.87
			c-0.9,0-1.63,0.73-1.63,1.64v14.45c0,10.2,8.26,18.47,18.45,18.47h34.83V515.15z"/>
		<path fill="#2927F6" d="M128.4,515.15h34.81c5.67,0,10.32-4.65,10.32-10.33v-14.44c0-0.9,0.73-1.64,1.63-1.64h4.87
			c0.9,0,1.63,0.73,1.63,1.64v14.45c0,10.2-8.26,18.47-18.45,18.47H128.4V515.15z"/>
		<path fill="#2927F6" d="M138.24,494.3c3.51,0,5.39-1.96,5.39-5.48c0-3.52-1.88-5.48-5.39-5.48c-3.59,0-5.56,1.96-5.56,5.48
			C132.69,492.34,134.65,494.3,138.24,494.3z"/>
		<path fill="#2927F6" d="M152.71,494.3c3.51,0,5.47-1.96,5.47-5.48c0-3.52-1.96-5.48-5.47-5.48s-5.48,1.96-5.48,5.48
			C147.23,492.34,149.19,494.3,152.71,494.3z"/>
	</g>
</g>
<g>
	<rect x="-236.87" y="-2538.19" fill="#55CDFF" width="1176.35" height="1200.63"/>
</g>
<g>
	<g>
		<path fill="#2927F6" d="M707.89-2026.3h-83.01c-22.38,0-41.97,13.99-49.43,34.51l-26.12,76.48c-1.86,5.6-7.46,9.32-13.05,9.32
			c-13.68,0-27.36,0-41.04,0c-4.67,0-7.46,3.73-7.46,7.46v22.38c0,4.67,2.8,7.46,7.46,7.46h39.17h1.87
			c18.6,0,34.33-11.7,43.44-27.87v20.32c0,4.66,2.8,7.46,7.46,7.46h30.39c20.47,0,40.94,0,61.41,0v0.09h28.91
			c28.91,0,52.23-23.32,52.23-51.3v-55.03C760.12-2002.99,736.81-2026.3,707.89-2026.3z M722.82-1919.98
			c0,7.46-6.53,13.99-14.93,13.99h-9.55c-37.05-0.03-74.11-0.06-111.16-0.09c-0.71,0-1.04,0.55-1.66,0.71l25.37-74.3
			c1.86-5.6,7.46-9.32,13.99-9.32h83.01c8.4,0,14.93,6.53,14.93,13.99V-1919.98z"/>
	</g>
	<path fill="#2927F6" d="M175.34-1932.38h-6.18c-0.96,0-1.57,0.26-2.09,1.13l-24.9,39.94l-24.9-39.94
		c-0.53-0.87-1.13-1.13-2.09-1.13h-6.27c-1.13,0-1.74,0.61-1.74,1.74v58.08c0,1.13,0.61,1.74,1.74,1.74h5.05
		c1.13,0,1.74-0.61,1.74-1.74v-45.78l22.55,35.58c0.53,0.87,1.14,1.13,2.09,1.13h3.57c0.87,0,1.57-0.26,2.09-1.13l22.55-35.49v45.7
		c0,1.13,0.61,1.74,1.74,1.74h5.05c1.14,0,1.74-0.61,1.74-1.74v-58.08C177.09-1931.76,176.48-1932.38,175.34-1932.38z"/>
	<path fill="#2927F6" d="M215.91-1919.72h-14.45c-14.54,0-18.03,6.45-18.03,19.09v10.55c0,12.99,3.48,19.36,18.03,19.36h14.45
		c14.54,0,18.03-6.37,18.03-19.36v-10.55C233.94-1913.27,230.45-1919.72,215.91-1919.72z M225.75-1889.38
		c0,8.98-1.92,10.9-10.01,10.9h-14.1c-8.1,0-10.01-1.92-10.01-10.9v-11.86c0-8.81,1.92-10.73,10.01-10.73h14.1
		c8.1,0,10.01,1.92,10.01,10.73V-1889.38z"/>
	<path fill="#2927F6" d="M-62.23-1884.74c-0.76,5.03-3.28,6.26-9.73,6.26h-14.1c-8.1,0-10.01-1.92-10.01-10.9v-11.86
		c0-8.81,1.92-10.73,10.01-10.73h14.1c6.38,0,8.92,1.21,9.71,6.03h8.23c-1.04-9.14-5.42-13.79-17.76-13.79h-14.45
		c-14.54,0-18.03,6.45-18.03,19.09v10.55c0,12.99,3.48,19.36,18.03,19.36h14.45c12.39,0,16.75-4.62,17.77-14.02H-62.23z"/>
	<path fill="#2927F6" d="M271.39-1919.72h-25.51c-1.14,0-1.74,0.61-1.74,1.74v4.27c0,1.14,0.61,1.74,1.74,1.74h25.34
		c7.31,0,8.97,1.48,8.97,7.07c0,2.09-0.7,3.23-2.78,3.49l-21.6,2.35c-11.84,1.31-15.59,5.32-15.59,14.82
		c0,9.33,6.62,13.52,18.29,13.52h6.53c9.58,0,12.89-2.36,15.15-7.5v5.76c0,1.13,0.61,1.74,1.74,1.74h4.7c1.14,0,1.74-0.61,1.74-1.74
		v-32.88C288.37-1915.28,283.93-1919.72,271.39-1919.72z M280.18-1889.64c0,8.2-2.78,11.34-11.84,11.34h-9.84
		c-6.97,0-10.01-2.35-10.01-6.63c0-4.71,1.65-6.37,8.62-7.06l23.08-2.44V-1889.64z"/>
	<path fill="#2927F6" d="M26.44-1919.72H0.93c-1.14,0-1.74,0.61-1.74,1.74v4.27c0,1.14,0.61,1.74,1.74,1.74h25.34
		c7.31,0,8.97,1.48,8.97,7.07c0,2.09-0.7,3.23-2.78,3.49l-21.6,2.35c-11.84,1.31-15.59,5.32-15.59,14.82
		c0,9.33,6.62,13.52,18.29,13.52h6.53c9.58,0,12.89-2.36,15.15-7.5v5.76c0,1.13,0.61,1.74,1.74,1.74h4.7c1.14,0,1.74-0.61,1.74-1.74
		v-32.88C43.42-1915.28,38.98-1919.72,26.44-1919.72z M35.23-1889.64c0,8.2-2.78,11.34-11.84,11.34h-9.84
		c-6.97,0-10.01-2.35-10.01-6.63c0-4.71,1.65-6.37,8.62-7.06l23.08-2.44V-1889.64z"/>
	<path fill="#2927F6" d="M328.35-1919.72h-20.03v-10.81c0-1.13-0.61-1.74-1.74-1.74h-2.26c-1.13,0-1.74,0.61-1.74,1.83
		c-0.09,9.94-0.7,10.64-7.84,10.73c-1.13,0-1.74,0.61-1.74,1.74v4.1c0,1.13,0.61,1.74,1.74,1.74h5.4v22.94
		c0,12.21,3.57,18.49,19.33,18.49h8.88c1.13,0,1.74-0.61,1.74-1.74v-4.1c0-1.13-0.61-1.74-1.74-1.74h-8.88
		c-8.71,0-11.15-2.35-11.15-10.2v-23.63h20.03c1.13,0,1.74-0.61,1.74-1.74v-4.1C330.09-1919.12,329.48-1919.72,328.35-1919.72z"/>
	<path fill="#2927F6" d="M85.34-1919.72H65.31v-10.81c0-1.13-0.61-1.74-1.74-1.74h-2.26c-1.13,0-1.74,0.61-1.74,1.83
		c-0.09,9.94-0.7,10.64-7.84,10.73c-1.13,0-1.74,0.61-1.74,1.74v4.1c0,1.13,0.61,1.74,1.74,1.74h5.4v22.94
		c0,12.21,3.57,18.49,19.33,18.49h8.88c1.13,0,1.74-0.61,1.74-1.74v-4.1c0-1.13-0.61-1.74-1.74-1.74h-8.88
		c-8.71,0-11.15-2.35-11.15-10.2v-23.63h20.03c1.13,0,1.74-0.61,1.74-1.74v-4.1C87.08-1919.12,86.47-1919.72,85.34-1919.72z"/>
	<path fill="#2927F6" d="M394.36-1919.72h-1.92c-8.27,0-12.98,2.35-15.32,7.06c-2.35-4.97-7.23-7.06-15.5-7.06h-1.92
		c-7.92,0-11.93,2.09-13.85,6.37v-4.62c0-1.14-0.61-1.74-1.74-1.74h-4.7c-1.13,0-1.74,0.61-1.74,1.74v45.52
		c0,1.13,0.61,1.74,1.74,1.74h4.7c1.13,0,1.74-0.61,1.74-1.74v-28.6c0-9.33,3.14-10.9,10.01-10.9h4.96c8.01,0,9.93,1.92,9.93,10.9
		v28.69c0,1.13,0.61,1.74,1.74,1.74h4.7c1.13,0,1.74-0.61,1.74-1.74v-28.69c0-9.33,3.14-10.9,10.01-10.9h4.96
		c8.01,0,10.01,1.92,10.01,10.9v28.69c0,1.13,0.61,1.74,1.74,1.74h4.7c1.13,0,1.74-0.61,1.74-1.74v-27.99
		C412.13-1913.36,408.47-1919.72,394.36-1919.72z"/>
	<path fill="#2927F6" d="M-11.08-1887.97c0,0,0,15.59,0,15.59c0,1.14-0.61,1.75-1.75,1.75h-4.7c-1.13,0-1.75-0.61-1.75-1.75v-16.29
		c0-8.95-1.99-10.89-9.92-10.9h-0.58c-6.88,0-10.02,1.57-10.02,10.9v16.2c0,1.14-0.61,1.75-1.75,1.75h-4.7
		c-1.13,0-1.74-0.61-1.74-1.75c0-10.15,0-24.74,0-34.88c0-9.24,0-14.03,0-23.27c-0.01-0.08-0.08-0.77,0.45-1.3
		c0.29-0.29,0.73-0.44,1.29-0.44h4.7c1.14,0,1.75,0.61,1.75,1.75v29.65c0.42-0.91,1.02-1.91,1.91-2.84
		c3.36-3.55,8.64-3.98,13.22-3.33c3.92,0.56,7.87,1.79,10.34,5.08C-11.37-1898.12-11.08-1892.69-11.08-1887.97z"/>
	<path fill="#2927F6" d="M452.11-1919.72h-20.03v-10.81c0-1.13-0.61-1.74-1.74-1.74h-2.26c-1.13,0-1.74,0.61-1.74,1.83
		c-0.09,9.94-0.7,10.64-7.84,10.73c-1.13,0-1.74,0.61-1.74,1.74v4.1c0,1.13,0.61,1.74,1.74,1.74h5.4v22.94
		c0,12.21,3.57,18.49,19.33,18.49h8.88c1.13,0,1.74-0.61,1.74-1.74v-4.1c0-1.13-0.61-1.74-1.74-1.74h-8.88
		c-8.71,0-11.15-2.35-11.15-10.2v-23.63h20.03c1.13,0,1.74-0.61,1.74-1.74v-4.1C453.85-1919.12,453.24-1919.72,452.11-1919.72z"/>
	<path fill="#2927F6" d="M431.34-1998.61h-18.1c-4.88,0-9.15,3.06-10.78,7.54l-5.7,16.71c-0.41,1.22-1.63,2.04-2.85,2.04h-12.3
		v-15.18c0-0.24-0.03-0.47-0.04-0.7v-0.06c0,0,0,0,0,0c-0.21-3.37-1.78-6.4-4.31-8.21c-1.93-1.38-4.19-2.1-6.56-2.1h-18.19
		c-6.25,0-11.31,5.07-11.31,11.33v11.84c0,6.24,5.07,11.32,11.29,11.33l0-0.09h20.62c-0.84,4.85-3.77,6.42-10.87,6.42h-8.88
		c-1.13,0-1.74,0.61-1.74,1.74v4.1c0,1.13,0.61,1.74,1.74,1.74h8.88c13.7,0,18.18-4.75,19.12-14.01h12.55
		c3.91,0,7.52-2.15,9.55-5.47v3.84c0,1.02,0.61,1.63,1.63,1.63h6.63h1.91h11.4h4.3h2.01c6.31,0,11.39-5.09,11.39-11.2v-12.02
		C442.74-1993.52,437.65-1998.61,431.34-1998.61z M349.35-1975.42v-11.84c0-1.75,1.42-3.17,3.17-3.17h18.19
		c0.66,0,1.3,0.2,1.83,0.59c0.47,0.33,0.79,1.03,0.89,1.83c-0.01,0-0.02,0-0.04,0v15.68h-21.58
		C350.4-1972.66,349.35-1973.91,349.35-1975.42z M434.6-1975.39c0,1.63-1.43,3.06-3.26,3.06h-2.01h-4.3h-11.4h-1.91h-6.63
		c-0.16,0-0.29,0.05-0.42,0.09l5.52-16.18c0.4-1.22,1.63-2.04,3.05-2.04h18.1c1.83,0,3.26,1.43,3.26,3.06V-1975.39z"/>
	<path fill="#2927F6" d="M251.28-1969.69v3.87c0,1.02,0.61,1.63,1.63,1.63h6.63h1.91h11.4h3.14h1.16h2.01h34.42
		c10.15,0,18.46-8.32,18.46-18.49v-14.44c0-0.9-0.73-1.64-1.63-1.64h-4.87c-0.9,0-1.63,0.73-1.63,1.64v14.45
		c0,5.7-4.61,10.32-10.3,10.32h-23.49c0.28-0.97,0.44-2,0.44-3.05v-12.02c0-6.11-5.09-11.2-11.39-11.2h-18.1
		c-4.88,0-9.15,3.06-10.78,7.54l-5.7,16.71c-0.41,1.22-1.63,2.04-2.85,2.04h-12.11v-0.01h-38.76c-5.67,0-10.32-4.65-10.32-10.33
		v-13.86c0-0.05-0.01-0.09-0.01-0.14v-0.44c0-0.9-0.73-1.64-1.63-1.64h-0.57h-3.71h-0.59c-0.9,0-1.63,0.73-1.63,1.64v14.45
		c0,5.7-4.61,10.32-10.31,10.32h-24.5h-11.59c-5.67,0-10.32-4.65-10.32-10.33v-14.44c0-0.9-0.73-1.64-1.63-1.64h-4.87
		c-0.9,0-1.63,0.73-1.63,1.64v14.45c0,10.2,8.26,18.47,18.45,18.47h11.6h24.49h1.52v-0.08c5.2-0.42,9.79-3,12.88-6.85
		c3.38,4.22,8.56,6.92,14.38,6.92h7.13h31.64h12.11C245.61-1964.19,249.14-1966.38,251.28-1969.69z M258-1988.43
		c0.41-1.22,1.63-2.04,3.05-2.04h18.1c1.83,0,3.26,1.43,3.26,3.06v12.02c0,1.61-1.4,3.02-3.2,3.05h-3.23v0.01h-3.14v0h-11.4h-1.91
		h-6.63c-0.16,0-0.29,0.05-0.42,0.09L258-1988.43z"/>
	<path fill="#2927F6" d="M353-2004.84h2.76h5h9.05c0.87,0,1.36-0.45,1.36-1.37v-2.16c0-0.87-0.49-1.33-1.36-1.33h-8.94
		c0.42-3.26,2.16-4.29,6.66-4.29h2.58c0.68,0,1.06-0.38,1.06-1.06v-2.5c0-0.68-0.38-1.06-1.06-1.06h-2.58
		c-8.56,0-11.21,3.03-11.66,8.91H353c-0.91,0-1.36,0.45-1.36,1.33v2.16C351.64-2005.3,352.1-2004.84,353-2004.84z"/>
	<path fill="#2927F6" d="M320.37-2002.52c3.51,0,5.39-1.96,5.39-5.48c0-3.52-1.88-5.48-5.39-5.48c-3.59,0-5.56,1.96-5.56,5.48
		C314.81-2004.48,316.77-2002.52,320.37-2002.52z"/>
	<path fill="#2927F6" d="M334.83-2013.49c-3.51,0-5.48,1.96-5.48,5.48c0,3.52,1.96,5.48,5.48,5.48c3.51,0,5.47-1.96,5.47-5.48
		C340.3-2011.52,338.34-2013.49,334.83-2013.49z"/>
	<path fill="#2927F6" d="M87.59-1998.75h-4.87c-0.9,0-1.63,0.73-1.63,1.64v14.45c0,5.7-4.61,10.32-10.3,10.32H29.07v8.15h41.7
		c10.15,0,18.46-8.32,18.46-18.49v-14.44C89.23-1998.01,88.5-1998.75,87.59-1998.75z"/>
	<path fill="#2927F6" d="M56.84-1972.34H-3.79c-5.69,0-10.3-4.62-10.3-10.32v-41.82c0-0.9-0.73-1.64-1.63-1.64h-4.87
		c-0.9,0-1.63,0.73-1.63,1.64v41.8c0,10.17,8.31,18.49,18.46,18.49h60.62V-1972.34z"/>
	<path fill="#2927F6" d="M69.16-1998.75h-4.87c-0.9,0-1.63,0.73-1.63,1.64v14.45c0,5.7-4.61,10.32-10.3,10.32H29.09v8.15h23.24
		c10.15,0,18.46-8.32,18.46-18.49v-14.44C70.79-1998.01,70.06-1998.75,69.16-1998.75z"/>
	<path fill="#2927F6" d="M50.05-1998.75h-4.87c-0.9,0-1.63,0.73-1.63,1.64v14.45c0,5.7-4.61,10.32-10.3,10.32H-3.95v8.15h37.17
		c10.15,0,18.46-8.32,18.46-18.49v-14.44C51.69-1998.01,50.96-1998.75,50.05-1998.75z"/>
	<path fill="#2927F6" d="M59.72-2002.52c3.51,0,5.39-1.96,5.39-5.48c0-3.52-1.88-5.48-5.39-5.48c-3.59,0-5.56,1.96-5.56,5.48
		C54.16-2004.48,56.12-2002.52,59.72-2002.52z"/>
	<path fill="#2927F6" d="M74.18-2013.49c-3.51,0-5.48,1.96-5.48,5.48c0,3.52,1.96,5.48,5.48,5.48c3.51,0,5.47-1.96,5.47-5.48
		C79.66-2011.52,77.7-2013.49,74.18-2013.49z"/>
	<path fill="#2927F6" d="M66.14-2025.82c-3.51,0-5.48,1.96-5.48,5.48c0,3.52,1.96,5.48,5.48,5.48c3.51,0,5.47-1.96,5.47-5.48
		C71.61-2023.86,69.65-2025.82,66.14-2025.82z"/>
	<path fill="#2927F6" d="M136.65-1993.19c3.51,0,5.39-1.96,5.39-5.48c0-3.52-1.88-5.48-5.39-5.48c-3.59,0-5.56,1.96-5.56,5.48
		C131.09-1995.16,133.06-1993.19,136.65-1993.19z"/>
	<path fill="#2927F6" d="M151.11-1993.19c3.51,0,5.47-1.96,5.47-5.48c0-3.52-1.96-5.48-5.47-5.48s-5.48,1.96-5.48,5.48
		C145.64-1995.16,147.6-1993.19,151.11-1993.19z"/>
	<g>
		<path fill="#2927F6" d="M-49.68-1972.34h-34.81c-5.67,0-10.32-4.65-10.32-10.33v-14.44c0-0.9-0.73-1.64-1.63-1.64h-4.87
			c-0.9,0-1.63,0.73-1.63,1.64v14.45c0,10.2,8.26,18.47,18.45,18.47h34.83V-1972.34z"/>
		<path fill="#2927F6" d="M-83.67-1972.34h34.81c5.67,0,10.32-4.65,10.32-10.33v-14.44c0-0.9,0.73-1.64,1.63-1.64h4.87
			c0.9,0,1.63,0.73,1.63,1.64v14.45c0,10.2-8.26,18.47-18.45,18.47h-34.83V-1972.34z"/>
		<path fill="#2927F6" d="M-73.83-1993.19c3.51,0,5.39-1.96,5.39-5.48c0-3.52-1.88-5.48-5.39-5.48c-3.59,0-5.56,1.96-5.56,5.48
			C-79.39-1995.16-77.43-1993.19-73.83-1993.19z"/>
		<path fill="#2927F6" d="M-59.37-1993.19c3.51,0,5.47-1.96,5.47-5.48c0-3.52-1.96-5.48-5.47-5.48s-5.48,1.96-5.48,5.48
			C-64.84-1995.16-62.88-1993.19-59.37-1993.19z"/>
	</g>
</g>
<g>
	<rect x="2535.5" y="-1833.5" fill="#2927F6" width="1176.35" height="1200.63"/>
</g>
<g>
	<g>
		<path fill="#55CDFF" d="M3480.27-1321.61h-83.01c-22.38,0-41.97,13.99-49.43,34.51l-26.12,76.48c-1.86,5.6-7.46,9.32-13.05,9.32
			c-13.68,0-27.36,0-41.04,0c-4.67,0-7.46,3.73-7.46,7.46v22.38c0,4.67,2.8,7.46,7.46,7.46h39.17h1.87
			c18.6,0,34.33-11.7,43.44-27.87v20.32c0,4.66,2.8,7.46,7.46,7.46h30.39c20.47,0,40.94,0,61.41,0v0.09h28.91
			c28.91,0,52.23-23.32,52.23-51.3v-55.03C3532.5-1298.29,3509.18-1321.61,3480.27-1321.61z M3495.19-1215.28
			c0,7.46-6.53,13.99-14.93,13.99h-9.55c-37.05-0.03-74.11-0.06-111.16-0.09c-0.71,0-1.04,0.55-1.66,0.71l25.37-74.3
			c1.86-5.6,7.46-9.32,13.99-9.32h83.01c8.4,0,14.93,6.53,14.93,13.99V-1215.28z"/>
	</g>
	<path fill="#55CDFF" d="M2947.72-1227.68h-6.18c-0.96,0-1.57,0.26-2.09,1.13l-24.9,39.94l-24.9-39.94
		c-0.53-0.87-1.13-1.13-2.09-1.13h-6.27c-1.13,0-1.74,0.61-1.74,1.74v58.08c0,1.13,0.61,1.74,1.74,1.74h5.05
		c1.13,0,1.74-0.61,1.74-1.74v-45.78l22.55,35.58c0.53,0.87,1.14,1.13,2.09,1.13h3.57c0.87,0,1.57-0.26,2.09-1.13l22.55-35.49v45.7
		c0,1.13,0.61,1.74,1.74,1.74h5.05c1.14,0,1.74-0.61,1.74-1.74v-58.08C2949.46-1227.07,2948.85-1227.68,2947.72-1227.68z"/>
	<path fill="#55CDFF" d="M2988.28-1215.03h-14.45c-14.54,0-18.03,6.45-18.03,19.09v10.55c0,12.99,3.48,19.36,18.03,19.36h14.45
		c14.54,0,18.03-6.37,18.03-19.36v-10.55C3006.31-1208.58,3002.83-1215.03,2988.28-1215.03z M2998.12-1184.68
		c0,8.98-1.92,10.9-10.01,10.9H2974c-8.1,0-10.01-1.92-10.01-10.9v-11.86c0-8.81,1.92-10.73,10.01-10.73h14.1
		c8.1,0,10.01,1.92,10.01,10.73V-1184.68z"/>
	<path fill="#55CDFF" d="M2710.14-1180.04c-0.76,5.03-3.28,6.26-9.73,6.26h-14.1c-8.1,0-10.01-1.92-10.01-10.9v-11.86
		c0-8.81,1.92-10.73,10.01-10.73h14.1c6.38,0,8.92,1.21,9.71,6.03h8.23c-1.04-9.14-5.42-13.79-17.76-13.79h-14.45
		c-14.54,0-18.03,6.45-18.03,19.09v10.55c0,12.99,3.48,19.36,18.03,19.36h14.45c12.39,0,16.75-4.62,17.77-14.02H2710.14z"/>
	<path fill="#55CDFF" d="M3043.76-1215.03h-25.51c-1.14,0-1.74,0.61-1.74,1.74v4.27c0,1.14,0.61,1.74,1.74,1.74h25.34
		c7.31,0,8.97,1.48,8.97,7.07c0,2.09-0.7,3.23-2.78,3.49l-21.6,2.35c-11.84,1.31-15.59,5.32-15.59,14.82
		c0,9.33,6.62,13.52,18.29,13.52h6.53c9.58,0,12.89-2.36,15.15-7.5v5.76c0,1.13,0.61,1.74,1.74,1.74h4.7c1.14,0,1.74-0.61,1.74-1.74
		v-32.88C3060.74-1210.58,3056.3-1215.03,3043.76-1215.03z M3052.56-1184.94c0,8.2-2.78,11.34-11.84,11.34h-9.84
		c-6.97,0-10.01-2.35-10.01-6.63c0-4.71,1.65-6.37,8.62-7.06l23.08-2.44V-1184.94z"/>
	<path fill="#55CDFF" d="M2798.81-1215.03h-25.51c-1.14,0-1.74,0.61-1.74,1.74v4.27c0,1.14,0.61,1.74,1.74,1.74h25.34
		c7.31,0,8.97,1.48,8.97,7.07c0,2.09-0.7,3.23-2.78,3.49l-21.6,2.35c-11.84,1.31-15.59,5.32-15.59,14.82
		c0,9.33,6.62,13.52,18.29,13.52h6.53c9.58,0,12.89-2.36,15.15-7.5v5.76c0,1.13,0.61,1.74,1.74,1.74h4.7c1.14,0,1.74-0.61,1.74-1.74
		v-32.88C2815.79-1210.58,2811.35-1215.03,2798.81-1215.03z M2807.61-1184.94c0,8.2-2.78,11.34-11.84,11.34h-9.84
		c-6.97,0-10.01-2.35-10.01-6.63c0-4.71,1.65-6.37,8.62-7.06l23.08-2.44V-1184.94z"/>
	<path fill="#55CDFF" d="M3100.72-1215.03h-20.03v-10.81c0-1.13-0.61-1.74-1.74-1.74h-2.26c-1.13,0-1.74,0.61-1.74,1.83
		c-0.09,9.94-0.7,10.64-7.84,10.73c-1.13,0-1.74,0.61-1.74,1.74v4.1c0,1.13,0.61,1.74,1.74,1.74h5.4v22.94
		c0,12.21,3.57,18.49,19.33,18.49h8.88c1.13,0,1.74-0.61,1.74-1.74v-4.1c0-1.13-0.61-1.74-1.74-1.74h-8.88
		c-8.71,0-11.15-2.35-11.15-10.2v-23.63h20.03c1.13,0,1.74-0.61,1.74-1.74v-4.1C3102.47-1214.42,3101.86-1215.03,3100.72-1215.03z"
		/>
	<path fill="#55CDFF" d="M2857.71-1215.03h-20.03v-10.81c0-1.13-0.61-1.74-1.74-1.74h-2.26c-1.13,0-1.74,0.61-1.74,1.83
		c-0.08,9.94-0.7,10.64-7.84,10.73c-1.13,0-1.74,0.61-1.74,1.74v4.1c0,1.13,0.61,1.74,1.74,1.74h5.4v22.94
		c0,12.21,3.57,18.49,19.33,18.49h8.88c1.13,0,1.74-0.61,1.74-1.74v-4.1c0-1.13-0.61-1.74-1.74-1.74h-8.88
		c-8.71,0-11.15-2.35-11.15-10.2v-23.63h20.03c1.13,0,1.74-0.61,1.74-1.74v-4.1C2859.46-1214.42,2858.85-1215.03,2857.71-1215.03z"
		/>
	<path fill="#55CDFF" d="M3166.74-1215.03h-1.92c-8.27,0-12.98,2.35-15.32,7.06c-2.35-4.97-7.23-7.06-15.5-7.06h-1.92
		c-7.92,0-11.93,2.09-13.85,6.37v-4.62c0-1.14-0.61-1.74-1.74-1.74h-4.7c-1.13,0-1.74,0.61-1.74,1.74v45.52
		c0,1.13,0.61,1.74,1.74,1.74h4.7c1.13,0,1.74-0.61,1.74-1.74v-28.6c0-9.33,3.14-10.9,10.01-10.9h4.96c8.01,0,9.93,1.92,9.93,10.9
		v28.69c0,1.13,0.61,1.74,1.74,1.74h4.7c1.13,0,1.74-0.61,1.74-1.74v-28.69c0-9.33,3.14-10.9,10.01-10.9h4.96
		c8.01,0,10.01,1.92,10.01,10.9v28.69c0,1.13,0.61,1.74,1.74,1.74h4.7c1.13,0,1.74-0.61,1.74-1.74v-27.99
		C3184.5-1208.66,3180.85-1215.03,3166.74-1215.03z"/>
	<path fill="#55CDFF" d="M2761.3-1183.27c0,0,0,15.59,0,15.59c0,1.14-0.61,1.75-1.75,1.75h-4.7c-1.13,0-1.75-0.61-1.75-1.75v-16.29
		c0-8.95-1.99-10.89-9.92-10.9h-0.58c-6.88,0-10.02,1.57-10.02,10.9v16.2c0,1.14-0.61,1.75-1.75,1.75h-4.7
		c-1.13,0-1.74-0.61-1.74-1.75c0-10.15,0-24.74,0-34.88c0-9.24,0-14.03,0-23.27c-0.01-0.08-0.08-0.77,0.45-1.3
		c0.29-0.29,0.73-0.44,1.29-0.44h4.7c1.14,0,1.75,0.61,1.75,1.75v29.65c0.42-0.91,1.02-1.91,1.91-2.84
		c3.36-3.55,8.64-3.98,13.22-3.33c3.92,0.56,7.87,1.79,10.34,5.08C2761.01-1193.43,2761.3-1187.99,2761.3-1183.27z"/>
	<path fill="#55CDFF" d="M3224.49-1215.03h-20.03v-10.81c0-1.13-0.61-1.74-1.74-1.74h-2.26c-1.13,0-1.74,0.61-1.74,1.83
		c-0.09,9.94-0.7,10.64-7.84,10.73c-1.13,0-1.74,0.61-1.74,1.74v4.1c0,1.13,0.61,1.74,1.74,1.74h5.4v22.94
		c0,12.21,3.57,18.49,19.33,18.49h8.88c1.13,0,1.74-0.61,1.74-1.74v-4.1c0-1.13-0.61-1.74-1.74-1.74h-8.88
		c-8.71,0-11.15-2.35-11.15-10.2v-23.63h20.03c1.13,0,1.74-0.61,1.74-1.74v-4.1C3226.23-1214.42,3225.62-1215.03,3224.49-1215.03z"
		/>
	<path fill="#55CDFF" d="M3203.72-1293.92h-18.1c-4.88,0-9.15,3.06-10.78,7.54l-5.7,16.71c-0.41,1.22-1.63,2.04-2.85,2.04h-12.3
		v-15.18c0-0.24-0.03-0.47-0.04-0.7v-0.06c0,0,0,0,0,0c-0.21-3.37-1.78-6.4-4.31-8.21c-1.93-1.38-4.19-2.1-6.56-2.1h-18.19
		c-6.25,0-11.31,5.07-11.31,11.33v11.84c0,6.24,5.07,11.32,11.29,11.33l0-0.09h20.62c-0.84,4.85-3.77,6.42-10.87,6.42h-8.88
		c-1.13,0-1.74,0.61-1.74,1.74v4.1c0,1.13,0.61,1.74,1.74,1.74h8.88c13.7,0,18.18-4.75,19.12-14.01h12.55
		c3.91,0,7.52-2.15,9.55-5.47v3.84c0,1.02,0.61,1.63,1.63,1.63h6.63h1.91h11.4h4.3h2.01c6.31,0,11.39-5.09,11.39-11.2v-12.02
		C3215.11-1288.82,3210.02-1293.92,3203.72-1293.92z M3121.73-1270.72v-11.84c0-1.75,1.42-3.17,3.17-3.17h18.19
		c0.66,0,1.3,0.2,1.83,0.59c0.47,0.33,0.79,1.03,0.89,1.83c-0.01,0-0.02,0-0.04,0v15.68h-21.58
		C3122.78-1267.96,3121.73-1269.22,3121.73-1270.72z M3206.97-1270.69c0,1.63-1.43,3.06-3.26,3.06h-2.01h-4.3h-11.4h-1.91h-6.63
		c-0.16,0-0.28,0.05-0.42,0.09l5.52-16.18c0.4-1.22,1.63-2.04,3.05-2.04h18.1c1.83,0,3.26,1.43,3.26,3.06V-1270.69z"/>
	<path fill="#55CDFF" d="M3023.66-1264.99v3.87c0,1.02,0.61,1.63,1.63,1.63h6.63h1.91h11.4h3.14h1.16h2.01h34.42
		c10.15,0,18.46-8.32,18.46-18.49v-14.44c0-0.9-0.73-1.64-1.63-1.64h-4.87c-0.9,0-1.63,0.73-1.63,1.64v14.45
		c0,5.7-4.61,10.32-10.3,10.32h-23.49c0.28-0.97,0.44-2,0.44-3.05v-12.02c0-6.11-5.09-11.2-11.39-11.2h-18.1
		c-4.88,0-9.15,3.06-10.78,7.54l-5.7,16.71c-0.41,1.22-1.63,2.04-2.85,2.04h-12.11v-0.01h-38.76c-5.67,0-10.32-4.65-10.32-10.33
		v-13.86c0-0.05-0.01-0.09-0.01-0.14v-0.44c0-0.9-0.73-1.64-1.63-1.64h-0.57h-3.71h-0.59c-0.9,0-1.63,0.73-1.63,1.64v14.45
		c0,5.7-4.61,10.32-10.31,10.32h-24.5h-11.59c-5.67,0-10.32-4.65-10.32-10.33v-14.44c0-0.9-0.73-1.64-1.63-1.64h-4.88
		c-0.9,0-1.63,0.73-1.63,1.64v14.45c0,10.2,8.26,18.47,18.45,18.47h11.6h24.49h1.52v-0.08c5.2-0.42,9.79-3,12.88-6.85
		c3.38,4.22,8.56,6.92,14.39,6.92h7.13h31.64h12.11C3017.98-1259.49,3021.51-1261.69,3023.66-1264.99z M3030.38-1283.73
		c0.41-1.22,1.63-2.04,3.05-2.04h18.1c1.83,0,3.26,1.43,3.26,3.06v12.02c0,1.61-1.4,3.02-3.2,3.05h-3.23v0.01h-3.14v0h-11.4h-1.91
		h-6.63c-0.16,0-0.29,0.05-0.42,0.09L3030.38-1283.73z"/>
	<path fill="#55CDFF" d="M3125.38-1300.14h2.76h5h9.05c0.87,0,1.36-0.45,1.36-1.37v-2.16c0-0.87-0.49-1.33-1.36-1.33h-8.94
		c0.42-3.26,2.16-4.29,6.66-4.29h2.58c0.68,0,1.06-0.38,1.06-1.06v-2.5c0-0.68-0.38-1.06-1.06-1.06h-2.58
		c-8.56,0-11.21,3.03-11.66,8.91h-2.88c-0.91,0-1.36,0.45-1.36,1.33v2.16C3124.01-1300.6,3124.47-1300.14,3125.38-1300.14z"/>
	<path fill="#55CDFF" d="M3092.74-1297.82c3.51,0,5.39-1.96,5.39-5.48c0-3.52-1.88-5.48-5.39-5.48c-3.59,0-5.56,1.96-5.56,5.48
		C3087.18-1299.79,3089.15-1297.82,3092.74-1297.82z"/>
	<path fill="#55CDFF" d="M3107.2-1308.79c-3.51,0-5.48,1.96-5.48,5.48c0,3.52,1.96,5.48,5.48,5.48c3.51,0,5.47-1.96,5.47-5.48
		C3112.68-1306.82,3110.72-1308.79,3107.2-1308.79z"/>
	<path fill="#55CDFF" d="M2859.97-1294.05h-4.88c-0.9,0-1.63,0.73-1.63,1.64v14.45c0,5.7-4.61,10.32-10.3,10.32h-41.71v8.15h41.7
		c10.15,0,18.46-8.32,18.46-18.49v-14.44C2861.6-1293.32,2860.87-1294.05,2859.97-1294.05z"/>
	<path fill="#55CDFF" d="M2829.22-1267.64h-60.64c-5.69,0-10.3-4.62-10.3-10.32v-41.82c0-0.9-0.73-1.64-1.63-1.64h-4.87
		c-0.9,0-1.63,0.73-1.63,1.64v41.8c0,10.17,8.31,18.49,18.46,18.49h60.62V-1267.64z"/>
	<path fill="#55CDFF" d="M2841.53-1294.05h-4.88c-0.9,0-1.63,0.73-1.63,1.64v14.45c0,5.7-4.61,10.32-10.3,10.32h-23.25v8.15h23.24
		c10.15,0,18.46-8.32,18.46-18.49v-14.44C2843.16-1293.32,2842.43-1294.05,2841.53-1294.05z"/>
	<path fill="#55CDFF" d="M2822.43-1294.05h-4.87c-0.9,0-1.63,0.73-1.63,1.64v14.45c0,5.7-4.61,10.32-10.3,10.32h-37.19v8.15h37.17
		c10.15,0,18.46-8.32,18.46-18.49v-14.44C2824.06-1293.32,2823.33-1294.05,2822.43-1294.05z"/>
	<path fill="#55CDFF" d="M2832.09-1297.82c3.51,0,5.39-1.96,5.39-5.48c0-3.52-1.88-5.48-5.39-5.48c-3.59,0-5.56,1.96-5.56,5.48
		C2826.54-1299.79,2828.5-1297.82,2832.09-1297.82z"/>
	<path fill="#55CDFF" d="M2846.56-1308.79c-3.51,0-5.48,1.96-5.48,5.48c0,3.52,1.96,5.48,5.48,5.48s5.47-1.96,5.47-5.48
		C2852.03-1306.82,2850.07-1308.79,2846.56-1308.79z"/>
	<path fill="#55CDFF" d="M2838.51-1321.12c-3.51,0-5.48,1.96-5.48,5.48c0,3.52,1.96,5.48,5.48,5.48s5.47-1.96,5.47-5.48
		C2843.99-1319.16,2842.03-1321.12,2838.51-1321.12z"/>
	<path fill="#55CDFF" d="M2909.02-1288.5c3.51,0,5.39-1.96,5.39-5.48c0-3.52-1.88-5.48-5.39-5.48c-3.59,0-5.56,1.96-5.56,5.48
		C2903.47-1290.46,2905.43-1288.5,2909.02-1288.5z"/>
	<path fill="#55CDFF" d="M2923.49-1288.5c3.51,0,5.47-1.96,5.47-5.48c0-3.52-1.96-5.48-5.47-5.48s-5.48,1.96-5.48,5.48
		C2918.01-1290.46,2919.97-1288.5,2923.49-1288.5z"/>
	<g>
		<path fill="#55CDFF" d="M2722.7-1267.64h-34.81c-5.67,0-10.32-4.65-10.32-10.33v-14.44c0-0.9-0.73-1.64-1.63-1.64h-4.87
			c-0.9,0-1.63,0.73-1.63,1.64v14.45c0,10.2,8.26,18.47,18.45,18.47h34.83V-1267.64z"/>
		<path fill="#55CDFF" d="M2688.7-1267.64h34.81c5.67,0,10.32-4.65,10.32-10.33v-14.44c0-0.9,0.73-1.64,1.63-1.64h4.87
			c0.9,0,1.63,0.73,1.63,1.64v14.45c0,10.2-8.26,18.47-18.45,18.47h-34.83V-1267.64z"/>
		<path fill="#55CDFF" d="M2698.54-1288.5c3.51,0,5.39-1.96,5.39-5.48c0-3.52-1.88-5.48-5.39-5.48c-3.59,0-5.56,1.96-5.56,5.48
			C2692.99-1290.46,2694.95-1288.5,2698.54-1288.5z"/>
		<path fill="#55CDFF" d="M2713.01-1288.5c3.51,0,5.47-1.96,5.47-5.48c0-3.52-1.96-5.48-5.47-5.48c-3.51,0-5.47,1.96-5.47,5.48
			C2707.53-1290.46,2709.49-1288.5,2713.01-1288.5z"/>
	</g>
</g>
<g>
	<rect x="-2910.41" y="1988.17" fill="#2927F6" width="1176.35" height="1200.63"/>
</g>
<g>
	<path fill="#55CDFF" d="M-2141.58,2418.05h-164.75c-44.42,0-83.29,27.77-98.1,68.49l-51.83,151.79
		c-3.69,11.11-14.8,18.51-25.91,18.51c-27.15,0-54.3,0-81.45,0c-9.26,0-14.81,7.41-14.81,14.81v44.42c0,9.26,5.55,14.81,14.81,14.81
		h77.74h3.71c36.91,0,68.14-23.23,86.21-55.31v40.33c0,9.25,5.56,14.8,14.8,14.8h60.32c40.63,0,81.24,0,121.87,0v0.18h57.38
		c57.38,0,103.66-46.28,103.66-101.81v-109.22C-2037.92,2464.32-2084.2,2418.05-2141.58,2418.05z M-2111.96,2629.07
		c0,14.81-12.96,27.76-29.62,27.76h-18.96c-73.54-0.06-147.08-0.11-220.62-0.17c-1.4,0-2.07,1.08-3.29,1.4l50.35-147.46
		c3.69-11.11,14.8-18.51,27.76-18.51h164.75c16.66,0,29.62,12.96,29.62,27.76V2629.07z"/>
</g>
<g>
	<path fill="#55CDFF" d="M-2141.58,3888.29h-164.75c-44.42,0-83.29,27.77-98.1,68.49l-51.83,151.79
		c-3.69,11.11-14.8,18.51-25.91,18.51c-27.15,0-54.3,0-81.45,0c-9.26,0-14.81,7.41-14.81,14.81v44.42c0,9.26,5.55,14.81,14.81,14.81
		h77.74h3.71c36.91,0,68.14-23.23,86.21-55.31v40.33c0,9.25,5.56,14.8,14.8,14.8h60.32c40.63,0,81.24,0,121.87,0v0.18h57.38
		c57.38,0,103.66-46.28,103.66-101.81V3990.1C-2037.92,3934.57-2084.2,3888.29-2141.58,3888.29z M-2111.96,4099.32
		c0,14.81-12.96,27.76-29.62,27.76h-18.96c-73.54-0.06-147.08-0.11-220.62-0.17c-1.4,0-2.07,1.08-3.29,1.4l50.35-147.46
		c3.69-11.11,14.8-18.51,27.76-18.51h164.75c16.66,0,29.62,12.96,29.62,27.76V4099.32z"/>
</g>
<g>
	<path fill="#2927F6" d="M-201.46,3888.29h-164.75c-44.42,0-83.29,27.77-98.1,68.49l-51.84,151.79
		c-3.69,11.11-14.8,18.51-25.91,18.51c-27.15,0-54.3,0-81.45,0c-9.26,0-14.81,7.41-14.81,14.81v44.42c0,9.26,5.55,14.81,14.81,14.81
		h77.74h3.71c36.91,0,68.14-23.23,86.21-55.31v40.33c0,9.25,5.56,14.8,14.8,14.8h60.32c40.63,0,81.24,0,121.87,0v0.18h57.38
		c57.38,0,103.66-46.28,103.66-101.81V3990.1C-97.81,3934.57-144.08,3888.29-201.46,3888.29z M-171.84,4099.32
		c0,14.81-12.96,27.76-29.62,27.76h-18.96c-73.54-0.06-147.08-0.11-220.62-0.17c-1.4,0-2.07,1.08-3.29,1.4l50.36-147.46
		c3.69-11.11,14.8-18.51,27.76-18.51h164.75c16.66,0,29.62,12.96,29.62,27.76V4099.32z"/>
</g>
</svg>
