<svg width="141" height="57" viewBox="0 0 141 57" fill="none" xmlns="http://www.w3.org/2000/svg">
<path d="M4.96244 0H2.35449V2.4528H4.96244V0Z" fill="#066E43"/>
<path d="M8.91556 0H6.30762V2.4528H8.91556V0Z" fill="#066E43"/>
<path d="M53.3765 17.1289H50.7686V19.5817H53.3765V17.1289Z" fill="#066E43"/>
<path d="M57.3316 17.1289H54.7236V19.5817H57.3316V17.1289Z" fill="#066E43"/>
<path d="M67.0407 2.45312H64.4111V4.88433H67.0407V2.45312Z" fill="#066E43"/>
<path d="M76.1294 0.380859H73.5215V2.81402H76.1294V0.380859Z" fill="#066E43"/>
<path d="M80.106 0.380859H77.498V2.81402H80.106V0.380859Z" fill="#066E43"/>
<path d="M86.7496 6.49271V11.1666C86.7496 12.5413 86.2449 13.2384 85.2571 13.2384H83.7665H83.3856H82.0639C81.1586 13.2384 80.5911 13.1756 80.3397 13.0695C81.245 12.0326 81.7065 10.8701 81.7065 9.60143C81.7065 9.0712 81.6221 8.5233 81.4551 7.99307C80.8031 5.94089 79.0573 4.65065 76.8068 4.65065C74.5975 4.65065 72.832 5.94089 72.1584 7.99307C71.9895 8.52134 71.9051 9.0712 71.9051 9.60143C71.9051 10.8701 72.3686 12.0326 73.2719 13.0695C73.0402 13.1756 72.4726 13.2384 71.5477 13.2384H70.3674H69.633H66.917C67.1487 12.5825 67.2744 11.8854 67.2744 11.1018V6.49271H64.3091V11.2078C64.3091 12.5609 63.8044 13.2384 62.8166 13.2384H60.9058H60.8802H57.2924C57.5241 12.5825 57.6282 11.8854 57.6282 11.1018V6.49271H54.6628V11.2078C54.6628 12.5609 54.1797 13.2384 53.1899 13.2384H51.5482H51.2536H48.2647H47.9289H44.5413H44.2055H40.8179H40.4821H26.107H25.7712H21.9417H21.6059H17.7765H17.4406H13.6308H13.2754H12.1167C10.6871 13.2384 9.97029 12.4784 9.97029 11.0822V4.42285C6.22726 4.42285 4.35378 4.42285 4.35378 4.44249C1.57694 4.44249 0 6.47308 0 9.62304C0 12.5413 1.62015 14.7407 4.14365 14.7407C5.59491 14.7407 6.60431 14.2969 7.13062 13.4721C7.80421 15.2062 8.9825 16.0722 10.6655 16.0722H13.2754H13.6308H17.4406H17.7765H21.6059H21.9417H25.7712H26.107H40.4821H40.8179H44.2055H44.5413H47.9289H48.2647H51.2536H51.5482H60.8802H60.9058H69.633H70.3674H71.5477C73.5881 16.0722 75.3339 15.8189 76.8068 15.2906C78.2796 15.8189 80.0255 16.0722 82.0659 16.0722H83.3875H83.7685H85.8914C87.1109 16.0722 88.0791 15.65 88.7723 14.7839C89.3811 14.0436 89.6973 13.1127 89.6973 11.9914V6.49468H86.7496V6.49271ZM6.94013 9.38934C6.94013 11.1234 6.18405 12.2879 4.94292 12.2879C3.76463 12.2879 2.92412 11.0625 2.92412 9.5818C2.92412 7.93219 3.80784 6.59876 5.00577 6.59876H6.94013V9.38934ZM77.8339 11.8205C77.4764 12.0739 77.1387 12.286 76.8029 12.4549C76.467 12.286 76.1293 12.0758 75.7935 11.8205C74.9726 11.2275 74.5739 10.4243 74.5739 9.38738C74.5739 8.73146 74.7625 8.16196 75.1199 7.69653C75.5617 7.21147 76.1096 6.95618 76.8029 6.95618C78.2129 6.95618 79.0534 8.05591 79.0534 9.38738C79.0534 10.4262 78.6547 11.2294 77.8339 11.8205Z" fill="#066E43"/>
<path d="M89.5046 2.45312H86.875V4.88433H89.5046V2.45312Z" fill="#066E43"/>
<path d="M85.5298 2.45312H82.9219V4.88433H85.5298V2.45312Z" fill="#066E43"/>
<path d="M8.92918 22.1816H6.33105V24.6207H8.92918V22.1816Z" fill="#066E43"/>
<path d="M4.99363 22.1816H2.39551V24.6207H4.99363V22.1816Z" fill="#066E43"/>
<path d="M27.817 39.2061H25.1934V41.6412H27.817V39.2061Z" fill="#066E43"/>
<path d="M23.854 39.2061H21.2559V41.6412H23.854V39.2061Z" fill="#066E43"/>
<path d="M6.9615 31.5093C6.9615 33.2335 6.20936 34.3902 4.97412 34.3902C3.79779 34.3902 2.96121 33.1727 2.96121 31.6998C2.96121 30.058 3.83903 28.7364 5.035 28.7364H6.9615V31.5093ZM25.0698 33.2767C25.0698 34.6416 24.5651 35.3348 23.5793 35.3348H22.3048H13.0415H12.1204C10.6947 35.3348 9.98185 34.5807 9.98185 33.1943V26.5703C6.24864 26.5703 4.38497 26.5703 4.38497 26.5919C1.61403 26.5919 0.0410156 28.6107 0.0410156 31.743C0.0410156 34.6416 1.65723 36.8293 4.17288 36.8293C5.62021 36.8293 6.62765 36.3874 7.15003 35.5685C7.81969 37.2888 8.99602 38.1509 10.6712 38.1509H13.0395H22.3028H24.2077C25.4214 38.1509 26.3856 37.7307 27.0808 36.8725C27.6856 36.1361 28.0018 35.2091 28.0018 34.0957V28.6323H25.0679V33.2767H25.0698Z" fill="#066E43"/>
<path d="M36.1793 29.0315C35.4055 28.7585 34.1055 28.6328 32.2595 28.6328V31.0895C35.9888 31.0895 37.5834 32.3935 37.5834 35.3392H29.9736V38.1554H40.5174V35.3176C40.5193 32.1421 39.0327 30.0409 36.1793 29.0315Z" fill="#066E43"/>
<path d="M64.8336 32.2285C64.3505 32.6664 63.8909 33.0042 63.4726 33.1947C62.9895 32.6271 62.5477 32.2069 62.1726 31.9339C61.7975 31.6609 61.2908 31.3664 60.6644 31.0895C61.4813 30.6908 62.3199 30.5043 63.1584 30.5043C64.0186 30.5043 64.8964 30.734 65.7998 31.1975C65.6073 31.5137 65.2735 31.8475 64.8336 32.2285ZM48.964 35.3392H47.2653C46.1754 35.3392 45.4625 34.4338 45.4625 33.2379C45.4625 32.1244 46.0497 31.2623 47.1612 31.2623C48.2295 31.2623 48.964 32.0596 48.964 33.2988V35.3392ZM86.7164 33.4461C86.7164 34.7068 86.2117 35.3392 85.2258 35.3392H83.3641C83.5939 34.7068 83.7176 33.992 83.7176 33.2163V28.6327H80.7837V33.4461C80.7837 34.7068 80.2829 35.3392 79.2971 35.3392H77.4295C77.6592 34.7068 77.783 33.992 77.783 33.2163V28.6327H74.8274V33.3204C74.8274 33.8879 74.7882 34.2434 74.7017 34.4123C74.472 35.023 74.0105 35.3392 73.3408 35.3392H71.8326H70.6995H67.0527C66.383 35.3392 65.8606 35.1703 65.4797 34.8109C66.2357 34.3514 67.0311 33.6365 67.8912 32.6487C68.6689 31.7434 69.1913 30.9854 69.421 30.4218C67.4297 28.8841 65.2715 28.1084 62.9424 28.1084C60.9943 28.1084 59.0442 28.6759 57.1393 29.811V32.2285C57.9563 32.3758 58.8164 32.7312 59.6943 33.2772C60.4287 33.7406 60.9727 34.1825 61.2889 34.6243C60.5112 35.1055 59.5902 35.3392 58.5611 35.3392H56.4972H53.8912H51.8999V33.4244C51.8999 30.6299 49.9341 28.6111 47.2496 28.6111C44.457 28.6111 42.4873 30.5259 42.4873 33.3636C42.4873 36.1581 44.5002 38.1553 47.2496 38.1553C48.2315 38.1553 48.8187 38.1121 49.0523 38.0296C48.8187 38.8485 48.149 39.2688 47.0178 39.2688H46.7665V41.6214H47.0826C49.9341 41.6214 51.5248 40.4647 51.8626 38.1553H53.8931H56.4991H58.6083C59.4684 38.1553 60.3286 38.008 61.2103 37.735C62.0273 37.4581 62.6753 37.1027 63.18 36.6824C64.1227 37.6702 65.2106 38.1553 66.4301 38.1553H70.7034H71.8365H85.3378C86.3845 38.1553 87.3291 37.7743 88.146 37.0418C89.1751 36.1149 89.6758 34.8325 89.6758 33.1947V28.6327H86.7203V33.4461H86.7164Z" fill="#066E43"/>
<path d="M98.8135 0.00976562V42.1965H141V0.00976562H98.8135ZM130.111 19.8306C132.403 22.847 133.677 25.0563 133.677 25.0563C132.894 26.427 132.016 27.894 131.046 29.4552C131.046 29.4552 129.634 27.0908 127.114 23.7739C125.843 22.1027 122.589 18.3773 122.54 18.3243C122.542 18.397 122.538 34.5984 122.548 36.1263L122.54 36.1243C122.54 36.1302 122.54 36.1381 122.54 36.144H117.265C117.275 34.6161 117.271 18.3989 117.273 18.3243C117.224 18.3773 113.97 22.1047 112.7 23.7739C110.178 27.0908 108.768 29.4552 108.768 29.4552C107.798 27.894 106.92 26.427 106.137 25.0563C106.137 25.0563 107.411 22.8489 109.703 19.8306C110.714 18.4991 113.163 15.7301 113.774 15.0428C112.038 15.3609 110.42 15.7772 109.214 16.1759C108.051 16.5608 107.162 16.9418 106.578 17.2148C106.025 17.474 105.728 17.6409 105.728 17.6409C106.091 16.2191 106.504 14.9328 106.971 13.8115C106.971 13.8115 107.248 13.6151 107.77 13.3087C108.314 12.9906 109.147 12.5507 110.233 12.1147C111.382 11.6552 112.821 11.1976 114.465 10.8579C114.418 10.8225 113.377 9.98595 112.969 9.72084C111.074 8.49738 110.329 8.89211 110.329 8.89211C111.272 8.21263 112.224 7.66276 113.167 7.26999C113.167 7.26999 113.314 7.18358 113.599 7.11681C113.901 7.04415 114.385 7.00488 115.015 7.12664C115.722 7.26214 117.754 8.21459 117.788 8.23423C117.79 8.2028 117.886 7.2916 117.919 6.96757C118.018 6.02101 118.226 6.07992 118.391 6.06421H121.419C121.586 6.07796 121.792 6.02101 121.89 6.96757C121.924 7.2916 122.018 8.2028 122.022 8.23423C122.057 8.21459 124.088 7.2641 124.795 7.12664C125.425 7.00488 125.908 7.04415 126.211 7.11681C126.495 7.18555 126.643 7.26999 126.643 7.26999C127.585 7.66276 128.538 8.21263 129.48 8.89211C129.48 8.89211 128.734 8.49738 126.841 9.72084C126.431 9.98595 125.392 10.8245 125.345 10.8579C126.988 11.1976 128.428 11.6552 129.577 12.1147C130.663 12.5507 131.493 12.9906 132.039 13.3087C132.562 13.6151 132.839 13.8115 132.839 13.8115C133.306 14.9328 133.718 16.2191 134.082 17.6409C134.082 17.6409 133.785 17.474 133.231 17.2148C132.65 16.9418 131.76 16.5608 130.596 16.1759C129.39 15.7753 127.774 15.3609 126.036 15.0428C126.653 15.7301 129.099 18.4971 130.111 19.8306Z" fill="#066E43"/>
<path d="M128.265 46.2875L131.717 50.0816H141V47.6897H135.437C135.191 48.1139 134.738 48.4006 134.211 48.4006C133.426 48.4006 132.789 47.7643 132.789 46.9788C132.789 46.1932 133.426 45.557 134.211 45.557C134.751 45.557 135.215 45.8614 135.454 46.3032H141V44.96H98.8135V46.2875H128.265Z" fill="#066E43"/>
<path d="M131.105 51.4699L127.652 47.6758H98.8135V49.7398H104.778C105.019 49.2979 105.483 48.9935 106.021 48.9935C106.806 48.9935 107.442 49.6298 107.442 50.4153C107.442 51.2008 106.806 51.8371 106.021 51.8371C105.496 51.8371 105.043 51.5484 104.795 51.1262H98.8135V53.5947H107.496L111.641 49.7221H123.768C124.009 49.2802 124.473 48.9758 125.011 48.9758C125.796 48.9758 126.433 49.6121 126.433 50.3976C126.433 51.1832 125.796 51.8194 125.011 51.8194C124.486 51.8194 124.033 51.5307 123.785 51.1085H112.187L108.041 54.9812H98.8115V56.3225H141V51.4679H131.105V51.4699ZM138.178 55.3838C137.654 55.3838 137.2 55.0951 136.953 54.6729H114.724C114.479 55.097 114.025 55.3838 113.499 55.3838C112.713 55.3838 112.077 54.7475 112.077 53.962C112.077 53.1764 112.713 52.5402 113.499 52.5402C114.039 52.5402 114.502 52.8445 114.742 53.2864H136.933C137.175 52.8445 137.638 52.5402 138.176 52.5402C138.962 52.5402 139.598 53.1764 139.598 53.962C139.598 54.7475 138.964 55.3838 138.178 55.3838Z" fill="#066E43"/>
</svg>
