<svg width="64" height="64" viewBox="0 0 64 64" fill="none" xmlns="http://www.w3.org/2000/svg">
<path d="M45.332 38.6665C45.332 49.7121 36.3776 58.6665 25.332 58.6665C14.2863 58.6665 5.33203 49.7121 5.33203 38.6665C5.33203 27.6209 14.2863 18.6665 25.332 18.6665C36.3776 18.6665 45.332 27.6209 45.332 38.6665Z" fill="#2927F6"/>
<path d="M47.9495 6.27501C48.4447 5.01933 50.2218 5.01933 50.717 6.27501L52.4621 10.6997C52.6133 11.0831 52.9167 11.3865 53.3002 11.5377L57.7247 13.2828C58.9805 13.778 58.9805 15.5551 57.7247 16.0504L53.3002 17.7954C52.9167 17.9466 52.6133 18.2501 52.4621 18.6335L50.717 23.0582C50.2218 24.3138 48.4447 24.3138 47.9495 23.0582L46.2045 18.6335C46.0533 18.2501 45.7498 17.9466 45.3663 17.7954L40.9418 16.0504C39.6861 15.5551 39.6861 13.778 40.9418 13.2828L45.3663 11.5377C45.7498 11.3865 46.0533 11.0831 46.2045 10.6997L47.9495 6.27501Z" fill="#2927F6"/>
<path d="M42.7113 24.1153L44.7097 22.1169L43.9097 20.0883L41.8815 19.2883L39.8828 21.2869C40.9065 22.1449 41.8532 23.0917 42.7113 24.1153Z" fill="#2927F6"/>
</svg>
