<svg width="64" height="64" viewBox="0 0 64 64" fill="none" xmlns="http://www.w3.org/2000/svg">
<g clip-path="url(#clip0_85_452)">
<path fill-rule="evenodd" clip-rule="evenodd" d="M38.6653 -0.539307C38.6653 -1.64387 39.5608 -2.53931 40.6653 -2.53931H56.6653C57.7698 -2.53931 58.6653 -1.64387 58.6653 -0.539307V15.4607C58.6653 16.5653 57.7698 17.4607 56.6653 17.4607C55.5608 17.4607 54.6653 16.5653 54.6653 15.4607V4.28912L36.7461 22.2082C35.965 22.9892 34.6989 22.9892 33.9178 22.2082C33.1368 21.4271 33.1368 20.161 33.9178 19.3799L51.8368 1.46069H40.6653C39.5608 1.46069 38.6653 0.565253 38.6653 -0.539307Z" fill="#2927F6"/>
<path d="M29.9987 -0.539307C15.2711 -0.539307 3.33203 11.3998 3.33203 26.1274C3.33203 40.8548 15.2711 52.794 29.9987 52.794C44.7262 52.794 56.6654 40.8548 56.6654 26.1274C56.6654 24.5306 56.5251 22.9666 56.256 21.4468C53.1331 21.2364 50.6654 18.6368 50.6654 15.4607V13.946L39.5747 25.0367C37.2315 27.3799 33.4326 27.3799 31.0894 25.0367C28.7462 22.6935 28.7462 18.8946 31.0894 16.5514L42.18 5.46069H40.6654C37.4894 5.46069 34.8896 2.99285 34.6792 -0.12992C33.1595 -0.39896 31.5955 -0.539307 29.9987 -0.539307Z" fill="#2927F6"/>
</g>
<defs>
<clipPath id="clip0_85_452">
<rect width="64" height="64" fill="white"/>
</clipPath>
</defs>
</svg>
