<svg width="64" height="64" viewBox="0 0 64 64" fill="none" xmlns="http://www.w3.org/2000/svg">
<path d="M52.5005 37.5816L52.9896 33.0357C53.2504 30.6104 53.4226 29.0088 53.2874 27.9997L53.3346 28C55.5437 28 57.3346 26.2091 57.3346 24C57.3346 21.7909 55.5437 20 53.3346 20C51.1256 20 49.3346 21.7909 49.3346 24C49.3346 24.9991 49.701 25.9126 50.3066 26.6137C49.437 27.1504 48.3005 28.2827 46.5893 29.9869C45.2712 31.3 44.612 31.9565 43.8768 32.0584C43.4693 32.1147 43.0544 32.0568 42.6781 31.8912C41.9992 31.592 41.5464 30.7805 40.641 29.1573L35.8693 20.6011C35.3106 19.5997 34.8432 18.7615 34.4218 18.0871C36.1506 17.205 37.3346 15.4074 37.3346 13.3333C37.3346 10.3878 34.9469 8 32.0013 8C29.0557 8 26.668 10.3878 26.668 13.3333C26.668 15.4074 27.852 17.205 29.5808 18.0871C29.1594 18.7616 28.692 19.5996 28.1333 20.6011L23.3615 29.1573C22.4561 30.7805 22.0035 31.592 21.3245 31.8912C20.9483 32.0568 20.5332 32.1147 20.1258 32.0584C19.3906 31.9565 18.7315 31.3 17.4133 29.9869C15.7023 28.2827 14.5655 27.1504 13.696 26.6137C14.3017 25.9126 14.668 24.9991 14.668 24C14.668 21.7909 12.8771 20 10.668 20C8.45882 20 6.66797 21.7909 6.66797 24C6.66797 26.2091 8.45882 28 10.668 28L10.7152 27.9997C10.58 29.0088 10.7523 30.6104 11.0132 33.0357L11.5021 37.5816C11.7735 40.1048 11.9992 42.5056 12.2756 44.6667H51.7269C52.0034 42.5056 52.229 40.1048 52.5005 37.5816Z" fill="#2927F6"/>
<path d="M29.1 55.9993H34.9021C42.4648 55.9993 46.2459 55.9993 48.7688 53.7412C49.8702 52.7553 50.5672 50.9785 51.0704 48.666H12.9316C13.4348 50.9785 14.1321 52.7553 15.2333 53.7412C17.7562 55.9993 21.5374 55.9993 29.1 55.9993Z" fill="#2927F6"/>
</svg>
