<svg width="64" height="64" viewBox="0 0 64 64" fill="none" xmlns="http://www.w3.org/2000/svg">
<path d="M7.3462 39.243L8.72657 44.3947C10.3379 50.4081 11.1436 53.415 12.97 55.3651C14.4122 56.9049 16.2785 57.9825 18.3331 58.4614C20.9352 59.0681 23.9419 58.2625 29.9556 56.651C35.9689 55.0398 38.9758 54.2342 40.926 52.4078C41.0878 52.2561 41.2444 52.0998 41.3961 51.939C40.5049 51.8643 39.606 51.7209 38.6924 51.5393C36.8361 51.1702 34.6305 50.579 32.022 49.8801L31.7372 49.8038L31.671 49.7862C28.8329 49.0257 26.4615 48.3889 24.568 47.7049C22.5768 46.9857 20.7676 46.099 19.2313 44.6601C17.1141 42.6771 15.6325 40.1107 14.9737 37.2857C14.4958 35.2358 14.6324 33.2254 15.0051 31.1414C15.3622 29.1443 16.0036 26.751 16.772 23.8833L18.197 18.565L18.2472 18.3779C13.1257 19.7576 10.43 20.5738 8.6323 22.2576C7.09252 23.6997 6.01497 25.5661 5.53593 27.6206C4.92921 30.2227 5.73486 33.2294 7.3462 39.243Z" fill="#2927F6"/>
<path fill-rule="evenodd" clip-rule="evenodd" d="M55.5461 28.5746L54.1656 33.7263C52.5544 39.7399 51.7485 42.7466 49.9221 44.6967C48.48 46.2364 46.6136 47.314 44.5592 47.793C44.3024 47.853 44.0418 47.8991 43.7746 47.9319C41.3344 48.233 38.357 47.4351 32.9368 45.9828C26.9232 44.3714 23.9164 43.5658 21.9663 41.7394C20.4265 40.2972 19.349 38.4308 18.8699 36.3762C18.2632 33.774 19.0688 30.7674 20.6802 24.7538L22.0606 19.6022C22.2922 18.7376 22.5074 17.9346 22.7112 17.1885C23.9247 12.7457 24.7402 10.3014 26.304 8.63181C27.7461 7.09203 29.6125 6.01448 31.6672 5.53544C34.269 4.92872 37.276 5.73437 43.2896 7.34571C49.3029 8.95704 52.3098 9.76269 54.26 11.5891C55.7997 13.0313 56.8773 14.8977 57.3562 16.9522C57.9629 19.5543 57.1573 22.5611 55.5461 28.5746ZM29.4744 26.1492C29.7602 25.0823 30.857 24.4491 31.924 24.735L44.8029 28.186C45.8698 28.4719 46.5029 29.5684 46.217 30.6354C45.9312 31.7023 44.8346 32.3354 43.7677 32.0495L30.8885 28.5986C29.8216 28.3127 29.1885 27.2162 29.4744 26.1492ZM27.4029 33.8756C27.6888 32.8087 28.7853 32.1756 29.8522 32.4615L37.5797 34.5322C38.6466 34.818 39.2797 35.9146 38.9938 36.9815C38.708 38.0484 37.6114 38.6818 36.5445 38.3959L28.817 36.3252C27.7501 36.0394 27.1168 34.9426 27.4029 33.8756Z" fill="#2927F6"/>
</svg>
