<svg width="64" height="64" viewBox="0 0 64 64" fill="none" xmlns="http://www.w3.org/2000/svg">
<path d="M41.3346 19.9998C41.3346 25.1545 37.156 29.3332 32.0013 29.3332C26.8466 29.3332 22.668 25.1545 22.668 19.9998C22.668 14.8452 26.8466 10.6665 32.0013 10.6665C37.156 10.6665 41.3346 14.8452 41.3346 19.9998Z" fill="#2927F6"/>
<path d="M48 43.9998C48 49.1545 40.8365 53.3332 32 53.3332C23.1634 53.3332 16 49.1545 16 43.9998C16 38.8452 23.1634 34.6665 32 34.6665C40.8365 34.6665 48 38.8452 48 43.9998Z" fill="#2927F6"/>
<path d="M18.9935 13.333C19.4667 13.333 19.9287 13.3794 20.3748 13.4678C19.288 15.3982 18.668 17.6266 18.668 19.9997C18.668 22.315 19.2582 24.4925 20.2962 26.39C19.8745 26.4686 19.439 26.5097 18.9935 26.5097C15.2217 26.5097 12.1641 23.56 12.1641 19.9214C12.1641 16.2827 15.2217 13.333 18.9935 13.333Z" fill="#2927F6"/>
<path d="M14.5269 50.6291C13.0124 48.8187 12.0007 46.5971 12.0007 43.9997C12.0007 41.4819 12.9515 39.3171 14.3894 37.5376C9.31025 37.9317 5.33398 40.7096 5.33398 44.0781C5.33398 47.4781 9.38012 50.2765 14.5269 50.6291Z" fill="#2927F6"/>
<path d="M45.3336 19.9997C45.3336 22.315 44.7435 24.4925 43.7054 26.39C44.1272 26.4686 44.5627 26.5097 45.0083 26.5097C48.78 26.5097 51.8376 23.56 51.8376 19.9214C51.8376 16.2827 48.78 13.333 45.0083 13.333C44.535 13.333 44.0731 13.3794 43.627 13.4678C44.7136 15.3982 45.3336 17.6266 45.3336 19.9997Z" fill="#2927F6"/>
<path d="M49.4746 50.6291C54.6213 50.2765 58.6674 47.4781 58.6674 44.0781C58.6674 40.7096 54.6911 37.9317 49.6119 37.5376C51.0498 39.3171 52.0007 41.4819 52.0007 43.9997C52.0007 46.5971 50.989 48.8187 49.4746 50.6291Z" fill="#2927F6"/>
</svg>
