<svg width="64" height="64" viewBox="0 0 64 64" fill="none" xmlns="http://www.w3.org/2000/svg">
<path d="M10.2521 10.2521C7.24931 13.2548 7.24931 18.1233 10.2521 21.126L14.4861 25.36C14.5178 25.3233 14.5512 25.2874 14.5861 25.2525L25.2527 14.5858C25.2876 14.551 25.3233 14.5177 25.36 14.486L21.126 10.2521C18.1233 7.24931 13.2548 7.24931 10.2521 10.2521Z" fill="#2927F6"/>
<path d="M28.1807 17.3071C28.149 17.3438 28.1157 17.3796 28.0807 17.4144L17.4142 28.0809C17.3793 28.1159 17.3434 28.1492 17.3066 28.1809L42.8735 53.7481C45.8765 56.7508 50.7447 56.7508 53.7477 53.7481C56.7503 50.7452 56.7503 45.8769 53.7477 42.874L28.1807 17.3071Z" fill="#2927F6"/>
<path d="M42.9339 6.15268C43.3633 5.06044 44.9032 5.06044 45.3323 6.15268L46.4801 9.07342C46.6113 9.40689 46.8742 9.67086 47.2065 9.80238L50.1163 10.9543C51.2046 11.3851 51.2046 12.9308 50.1163 13.3616L47.2065 14.5136C46.8742 14.6451 46.6113 14.909 46.4801 15.2425L45.3326 18.1632C44.9033 19.2555 43.3633 19.2555 42.9339 18.1633L41.7865 15.2425C41.6553 14.909 41.3923 14.6451 41.0601 14.5136L38.1502 13.3616C37.0619 12.9308 37.0619 11.3851 38.1502 10.9543L41.0601 9.80238C41.3923 9.67086 41.6553 9.40689 41.7865 9.07342L42.9339 6.15268Z" fill="#2927F6"/>
<path d="M53.2465 24.3455C53.6755 23.2533 55.2158 23.2533 55.6449 24.3455L56.0633 25.4105C56.1945 25.7439 56.4574 26.0079 56.7897 26.1394L57.8505 26.5594C58.9387 26.9902 58.9387 28.5361 57.8505 28.9667L56.7897 29.3867C56.4574 29.5182 56.1945 29.7822 56.0633 30.1155L55.6449 31.1806C55.2158 32.2729 53.6755 32.2729 53.2465 31.1806L52.8281 30.1155C52.6969 29.7822 52.4339 29.5182 52.1017 29.3867L51.0406 28.9667C49.9526 28.5361 49.9526 26.9902 51.0406 26.5594L52.1017 26.1394C52.4339 26.0079 52.6969 25.7439 52.8281 25.4105L53.2465 24.3455Z" fill="#2927F6"/>
<path d="M13.6879 40.8192C14.1171 39.7269 15.6571 39.7269 16.0863 40.8192L16.5048 41.884C16.6358 42.2176 16.8988 42.4816 17.231 42.6131L18.292 43.0331C19.3802 43.4637 19.3802 45.0096 18.292 45.4403L17.231 45.8603C16.8988 45.9917 16.6358 46.2557 16.5048 46.5893L16.0863 47.6541C15.6571 48.7464 14.1171 48.7464 13.6879 47.6541L13.2694 46.5893C13.1384 46.2557 12.8754 45.9917 12.5432 45.8603L11.4822 45.4403C10.394 45.0096 10.394 43.4637 11.4822 43.0331L12.5432 42.6131C12.8754 42.4816 13.1384 42.2176 13.2694 41.884L13.6879 40.8192Z" fill="#2927F6"/>
</svg>
